<?xml version="1.0" standalone="no"?>
<!DOCTYPE svg PUBLIC "-//W3C//DTD SVG 20010904//EN"
 "http://www.w3.org/TR/2001/REC-SVG-20010904/DTD/svg10.dtd">
<svg version="1.0" xmlns="http://www.w3.org/2000/svg"
 width="1024.000000pt" height="1024.000000pt" viewBox="0 0 1024.000000 1024.000000"
 preserveAspectRatio="xMidYMid meet">

<g transform="translate(0.000000,1024.000000) scale(0.100000,-0.100000)"
fill="#000000" stroke="none">
<path d="M0 5120 l0 -5120 5120 0 5120 0 0 5120 0 5120 -5120 0 -5120 0 0
-5120z m5488 3586 c24 5 33 2 38 -10 4 -9 22 -23 40 -31 26 -11 34 -20 34 -39
0 -22 5 -26 29 -26 17 0 33 -4 36 -10 3 -5 18 -11 33 -11 15 -1 -29 -5 -97
-10 -268 -17 -484 -50 -656 -101 -394 -116 -622 -227 -885 -428 -138 -107
-352 -339 -443 -481 -19 -31 -40 -60 -46 -64 -6 -3 -43 1 -81 11 -57 13 -99
16 -232 11 -93 -3 -195 -13 -238 -22 -143 -31 -431 -134 -547 -195 -100 -52
-356 -210 -392 -241 -10 -9 -15 -9 -23 2 -8 11 -9 10 -4 -3 4 -13 -10 -28 -51
-58 -31 -22 -59 -40 -62 -40 -4 0 -7 9 -7 20 0 12 6 19 16 17 8 -1 14 4 12 12
-3 16 17 43 29 36 4 -3 6 -13 3 -23 -4 -13 -3 -14 4 -4 5 7 7 25 4 39 -4 22
-2 25 14 21 20 -5 44 12 44 32 0 5 9 10 20 10 13 0 20 7 20 20 0 11 7 20 15
20 15 0 54 36 100 90 17 20 18 23 3 17 -24 -8 -23 6 1 27 10 10 22 33 25 52 4
19 11 34 16 34 6 0 10 9 10 20 0 11 3 19 8 19 27 -5 52 3 52 16 0 18 20 20 20
3 1 -8 6 -6 14 5 8 10 26 17 45 17 24 0 31 4 31 20 0 11 7 20 15 20 8 0 15 5
15 10 0 6 7 10 15 10 8 0 15 9 15 20 0 11 5 20 10 20 6 0 10 9 10 20 0 13 7
20 20 20 15 0 22 9 27 30 5 26 10 30 39 30 27 0 34 4 34 20 0 13 7 20 20 20
11 0 20 5 20 10 0 6 10 10 23 10 22 1 22 1 2 16 -20 16 -19 16 4 9 16 -5 21
-4 17 4 -5 7 6 11 33 11 34 0 41 3 41 20 0 13 7 20 20 20 13 0 20 7 20 20 0
13 7 20 20 20 13 0 20 7 20 20 0 17 7 20 40 20 33 0 40 3 40 20 0 18 7 20 80
20 50 0 80 4 80 11 0 25 27 37 73 32 l47 -6 0 42 c0 34 3 41 20 41 11 0 20 5
20 11 0 14 25 39 39 39 6 0 11 5 11 10 0 6 -4 10 -10 10 -5 0 -10 4 -10 9 0 4
11 6 25 3 20 -3 25 0 25 18 0 17 4 20 20 15 11 -3 20 -2 20 4 0 5 -10 12 -22
14 -16 3 -13 5 12 7 33 2 34 2 10 10 -19 7 -12 9 30 8 55 -2 55 -2 53 28 -1
16 1 22 4 14 8 -18 29 -40 39 -40 5 0 3 5 -4 12 -16 16 -15 33 4 52 12 12 37
16 105 16 82 0 89 1 89 20 0 17 7 20 40 20 22 0 40 5 40 10 0 6 18 10 40 10
22 0 40 5 40 10 0 6 18 10 40 10 22 0 40 5 40 10 0 6 9 10 20 10 11 0 20 5 20
10 0 6 9 10 20 10 11 0 20 5 20 10 0 6 9 10 20 10 11 0 20 5 20 10 0 6 9 10
20 10 11 0 20 5 20 10 0 6 9 10 20 10 11 0 20 5 20 10 0 6 27 10 60 10 33 0
60 4 60 10 0 6 5 10 11 10 7 0 18 8 25 18 8 10 13 12 14 5 0 -7 4 -13 9 -13 4
0 6 11 4 24 -5 22 -1 24 57 31 49 6 60 10 56 22 -5 13 2 14 41 9 45 -6 78 -10
166 -17 20 -2 37 -8 37 -14 0 -5 8 3 18 18 15 24 21 27 50 22 19 -4 32 -2 32
5 0 5 16 10 35 10 19 0 35 -5 35 -11 0 -5 5 -7 11 -3 6 3 15 0 20 -7 7 -12 9
-11 9 1 0 10 11 17 32 18 17 1 37 10 43 19 7 9 17 13 23 9 5 -3 13 0 16 6 5
10 7 10 12 1 7 -16 144 -18 144 -3 0 14 27 12 34 -2 5 -10 7 -10 12 0 3 6 17
12 30 12 13 0 24 5 24 10 0 6 9 10 20 10 11 0 20 5 20 10 0 16 37 11 56 -7 15
-16 17 -16 29 0 7 9 18 17 24 17 7 0 9 5 5 13 -6 9 -5 9 8 -1 9 -7 27 -10 46
-6z m-258 -31 c0 -8 -4 -15 -10 -15 -5 0 -10 7 -10 15 0 8 5 15 10 15 6 0 10
-7 10 -15z m-800 -75 c0 -5 -4 -10 -10 -10 -5 0 -10 5 -10 10 0 6 5 10 10 10
6 0 10 -4 10 -10z m285 1 c3 -5 1 -12 -5 -16 -5 -3 -10 1 -10 9 0 18 6 21 15
7z m1083 -28 c-10 -2 -26 -2 -35 0 -10 3 -2 5 17 5 19 0 27 -2 18 -5z m295
-135 c27 -27 51 -58 45 -58 -2 0 -22 18 -43 40 -21 22 -36 40 -32 40 5 0 18
-10 30 -22z m-204 -125 c72 -65 226 -208 343 -318 117 -110 242 -225 277 -255
118 -101 265 -232 426 -381 88 -81 207 -186 265 -235 130 -108 150 -126 336
-294 82 -75 206 -181 274 -236 69 -56 175 -148 236 -206 61 -58 129 -119 150
-134 22 -16 56 -42 76 -58 l37 -30 -62 -16 c-275 -73 -449 -130 -713 -231 -56
-21 -107 -39 -112 -39 -21 0 -228 -92 -318 -142 -113 -62 -180 -112 -317 -235
-128 -116 -148 -140 -193 -241 -19 -42 -27 -68 -19 -58 24 31 18 11 -21 -65
-47 -94 -70 -114 -158 -135 l-73 -17 -76 31 c-104 44 -194 55 -336 42 -204
-17 -324 -46 -487 -115 -221 -95 -369 -176 -634 -350 -210 -139 -299 -193
-407 -250 l-92 -49 -213 210 c-117 115 -253 245 -302 289 -143 128 -724 667
-901 835 -60 58 -199 186 -308 284 -109 98 -274 251 -365 340 -227 218 -328
315 -385 366 l-48 43 73 39 c85 46 184 112 321 214 142 107 347 231 467 284
132 59 346 125 470 145 146 23 331 19 480 -10 69 -14 126 -25 127 -25 1 0 -3
13 -8 30 -9 24 -7 39 14 82 55 119 296 388 457 510 285 215 652 372 1010 432
101 16 384 53 460 59 124 10 106 18 249 -110z m351 97 c0 -6 27 -10 61 -10 33
0 58 -4 55 -9 -3 -5 1 -11 9 -15 8 -3 17 0 21 6 5 7 2 8 -7 3 -11 -6 -11 -5
-3 4 15 16 103 -27 132 -64 15 -18 29 -25 56 -25 20 0 36 -5 36 -11 0 -6 9 -9
20 -6 16 4 20 0 20 -20 l0 -26 19 21 c20 24 41 31 21 7 -6 -8 -8 -20 -4 -26 5
-9 11 -7 22 7 10 13 16 15 19 7 3 -9 26 -13 64 -13 52 0 59 -2 59 -20 0 -18 7
-20 60 -20 33 0 60 -4 60 -10 0 -6 27 -10 60 -10 33 0 60 -4 60 -10 0 -5 9
-10 20 -10 13 0 20 -7 20 -20 0 -12 7 -20 18 -20 14 0 15 -2 2 -10 -13 -9 -13
-10 0 -10 9 0 21 4 28 10 7 5 -1 -4 -17 -22 -27 -28 -32 -30 -48 -17 -16 13
-17 12 -5 -3 13 -17 8 -43 -7 -34 -3 3 -7 -3 -8 -12 -1 -9 -6 -39 -12 -67 -41
-186 157 -347 336 -273 15 6 31 12 34 12 3 1 18 16 33 34 15 17 33 32 39 32 7
-1 1 -10 -12 -20 -23 -20 -23 -20 -2 -20 14 0 21 -6 21 -20 0 -18 7 -20 60
-20 53 0 60 -2 60 -20 0 -13 7 -20 20 -20 13 0 20 -7 20 -20 0 -11 5 -20 10
-20 6 0 10 -9 10 -20 0 -11 5 -20 10 -20 6 0 10 -9 10 -20 0 -13 7 -20 18 -20
20 0 42 -38 42 -71 0 -31 24 -49 65 -49 34 0 37 -2 33 -25 -4 -19 -1 -25 13
-25 24 0 25 -17 2 -23 -15 -4 -15 -6 5 -12 12 -4 22 -14 22 -21 0 -8 9 -14 20
-14 13 0 20 -7 20 -20 0 -13 7 -20 19 -20 23 0 31 -17 24 -52 -4 -19 2 -30 24
-46 50 -38 53 -42 53 -72 0 -23 5 -30 20 -30 13 0 20 -7 20 -18 0 -11 9 -27
20 -37 11 -10 20 -13 20 -7 0 6 7 9 15 6 18 -7 20 -35 3 -32 -6 2 -14 -5 -16
-14 -3 -15 4 -18 37 -18 33 0 41 -3 41 -19 0 -10 -7 -24 -15 -31 -19 -16 -19
-30 -1 -30 22 0 31 -68 11 -90 -15 -17 -15 -19 2 -29 16 -9 15 -10 -9 -11 -16
0 -28 -4 -28 -10 0 -5 11 -10 25 -10 14 0 25 -6 25 -13 0 -22 -23 -37 -57 -37
-29 0 -33 3 -33 25 0 18 -5 25 -20 25 -11 0 -20 7 -20 15 0 11 -11 15 -40 15
-22 0 -40 4 -40 9 0 5 -15 12 -32 16 -18 4 -41 9 -52 12 -14 4 -16 2 -11 -8 5
-8 -4 -3 -18 10 -15 13 -24 28 -21 33 3 5 1 7 -4 6 -16 -5 -74 43 -68 57 2 7
-7 23 -21 36 -22 21 -25 21 -19 5 5 -16 4 -17 -9 -6 -9 7 -13 15 -10 18 3 3
-5 10 -18 17 -12 6 -21 18 -19 26 2 8 0 11 -4 6 -10 -9 -65 43 -58 55 3 5 1 7
-4 6 -10 -3 -123 96 -312 273 -63 59 -130 119 -148 134 -18 15 -40 41 -48 57
-9 16 -18 27 -21 24 -4 -3 -13 3 -20 14 -8 11 -20 17 -26 14 -7 -4 -9 -3 -4 1
12 13 -33 54 -52 48 -9 -4 -13 -3 -9 2 4 4 -6 15 -22 24 -47 25 -230 193 -223
204 3 6 2 7 -4 4 -5 -3 -20 4 -34 16 -13 12 -69 62 -124 111 -55 49 -114 103
-131 120 -17 17 -54 51 -82 76 -28 25 -52 51 -52 58 0 6 -7 12 -15 12 -8 0
-15 7 -15 16 0 8 -4 13 -8 10 -11 -6 -26 4 -41 29 -12 20 -13 20 -6 0 5 -16 0
-14 -24 9 -32 31 -43 48 -16 26 13 -11 14 -10 9 3 -3 9 -14 17 -25 19 -11 2
-20 8 -20 13 0 6 -8 18 -16 28 -15 16 -14 17 20 17 21 0 37 5 37 10 0 6 -18
10 -40 10 -22 0 -40 5 -40 10 0 6 18 10 40 10 22 0 40 -4 40 -10z m-2550 -72
c0 -13 -23 -5 -28 10 -2 7 2 10 12 6 9 -3 16 -11 16 -16z m-170 -38 c0 -5 -4
-10 -10 -10 -5 0 -10 5 -10 10 0 6 5 10 10 10 6 0 10 -4 10 -10z m-220 -200
c0 -5 -7 -10 -15 -10 -8 0 -15 5 -15 10 0 6 7 10 15 10 8 0 15 -4 15 -10z
m3954 -180 c32 -12 33 -38 4 -70 l-22 -23 62 6 c34 4 62 3 62 -2 0 -5 -10 -7
-22 -3 -11 3 -19 1 -16 -4 7 -10 -57 -11 -88 -1 -25 9 -41 42 -36 80 4 29 16
33 56 17z m-4584 -180 c0 -5 -4 -10 -10 -10 -5 0 -10 5 -10 10 0 6 5 10 10 10
6 0 10 -4 10 -10z m5151 -291 c-5 -13 -10 -19 -10 -12 -1 15 10 45 15 40 3 -2
0 -15 -5 -28z m-5900 -456 c0 -5 2 -16 4 -26 3 -17 -31 -44 -42 -33 -8 7 7 27
16 21 5 -2 6 7 3 20 -2 15 0 25 7 25 6 0 11 -3 12 -7z m-122 -117 c-2 -2 -23
-13 -46 -25 -34 -17 -41 -18 -36 -6 3 9 7 14 10 11 2 -2 16 2 31 10 25 13 51
19 41 10z m-104 -56 c-3 -5 -11 -10 -16 -10 -6 0 -7 5 -4 10 3 6 11 10 16 10
6 0 7 -4 4 -10z m6569 -164 c-3 -15 -8 -25 -11 -23 -2 3 -1 17 3 31 3 15 8 25
11 23 2 -3 1 -17 -3 -31z m73 -53 c-3 -10 -5 -4 -5 12 0 17 2 24 5 18 2 -7 2
-21 0 -30z m33 7 c0 -5 -4 -10 -10 -10 -5 0 -10 5 -10 10 0 6 5 10 10 10 6 0
10 -4 10 -10z m-176 -96 c7 -19 2 -18 -19 6 -16 17 -16 20 -3 15 9 -4 19 -13
22 -21z m-6354 -63 c57 -46 174 -154 315 -291 168 -162 449 -426 655 -614 102
-93 239 -219 305 -280 66 -62 224 -208 350 -326 215 -200 515 -484 718 -680
88 -85 88 -86 85 -130 l-3 -44 -165 154 c-242 226 -525 489 -685 635 -77 70
-232 214 -345 319 -113 105 -259 239 -325 298 -130 114 -247 223 -535 497
-102 97 -249 234 -327 305 -79 71 -143 130 -143 133 0 2 7 20 15 39 16 40 17
39 85 -15z m6433 19 c3 -11 2 -22 -2 -24 -4 -3 -8 6 -9 20 -2 29 4 31 11 4z
m-6468 -220 c39 -39 133 -128 210 -198 77 -69 217 -199 310 -287 214 -202 533
-499 633 -589 42 -38 158 -144 257 -236 99 -92 239 -220 310 -285 72 -65 228
-211 349 -324 120 -113 239 -225 265 -247 74 -66 103 -114 99 -164 l-3 -43
-51 49 c-28 27 -143 135 -255 239 -112 105 -242 226 -289 271 -111 105 -436
404 -515 474 -35 30 -152 138 -262 240 -109 102 -300 277 -424 390 -123 112
-271 249 -329 305 -58 55 -181 170 -273 255 -92 85 -167 161 -167 169 0 20 30
51 49 51 9 0 48 -32 86 -70z m140 -370 c149 -139 331 -310 405 -379 74 -69
191 -176 259 -236 69 -61 231 -209 360 -329 130 -121 288 -267 351 -325 63
-58 150 -140 195 -181 44 -41 136 -127 205 -190 68 -63 170 -158 225 -210 55
-52 135 -126 178 -163 l77 -68 0 -55 c0 -30 -3 -54 -7 -54 -3 0 -22 19 -41 41
-20 23 -68 69 -107 103 -113 97 -320 283 -429 385 -55 51 -163 150 -241 219
-77 68 -171 155 -210 191 -38 37 -119 112 -180 166 -60 54 -159 145 -220 200
-60 56 -149 137 -197 181 -47 43 -200 185 -340 314 -139 129 -282 260 -318
290 -108 91 -310 283 -310 294 0 6 9 26 20 44 16 26 24 31 38 23 9 -5 139
-123 287 -261z m6393 121 c-4 -17 -74 -45 -378 -147 -107 -37 -208 -73 -224
-81 -17 -9 -59 -26 -95 -38 -189 -67 -528 -238 -706 -359 -158 -107 -236 -181
-276 -262 -22 -44 -37 -64 -50 -64 -25 0 -24 9 6 62 13 24 33 73 44 108 19 61
26 70 122 155 190 169 406 297 689 408 159 62 570 201 715 242 l120 33 18 -20
c10 -12 16 -28 15 -37z m-6670 -147 c97 -92 245 -226 327 -299 83 -73 204
-184 270 -246 187 -177 560 -518 775 -708 216 -192 509 -461 670 -617 147
-141 478 -433 505 -446 50 -22 108 4 570 255 264 144 802 416 1020 516 184 85
208 87 326 31 90 -42 91 -43 179 -38 75 5 101 11 162 40 143 68 217 140 290
280 25 48 58 94 84 117 27 23 164 99 351 194 170 86 373 190 453 232 80 42
201 103 270 136 69 34 224 108 345 167 121 58 243 121 272 139 60 38 65 39 99
17 16 -11 23 -22 19 -33 -4 -9 -8 -25 -11 -36 -8 -46 -41 -65 -599 -335 -253
-123 -342 -168 -450 -228 -11 -6 -47 -24 -80 -40 -33 -16 -73 -37 -90 -46 -71
-37 -363 -175 -392 -184 -18 -6 -48 -9 -67 -7 -42 4 -77 -28 -82 -74 -9 -77
-77 -183 -202 -314 -39 -41 -178 -113 -272 -141 -66 -20 -177 -21 -246 -2 -29
7 -79 28 -112 46 -64 34 -83 34 -133 -1 -14 -10 -86 -49 -160 -87 -122 -63
-275 -143 -434 -227 -33 -17 -107 -58 -165 -90 -58 -32 -123 -68 -145 -80 -22
-12 -76 -42 -120 -67 -44 -25 -143 -78 -220 -117 -77 -39 -169 -87 -205 -105
-80 -43 -164 -70 -210 -70 -36 1 -120 33 -120 46 0 5 -6 8 -14 8 -19 0 -117
84 -321 275 -93 88 -195 183 -225 210 -149 135 -290 274 -290 287 0 5 -4 7 -9
4 -5 -3 -30 13 -56 37 -230 202 -274 242 -745 674 -102 94 -218 199 -259 234
-41 35 -118 105 -171 154 -52 50 -194 176 -315 280 -121 105 -246 216 -279
247 -57 56 -59 59 -53 100 6 46 35 78 69 78 11 0 92 -69 196 -166z m6717 -1
c9 -14 13 -28 8 -33 -4 -4 -71 -29 -148 -55 -77 -26 -176 -62 -220 -80 -446
-185 -883 -394 -1070 -513 -38 -25 -95 -66 -125 -92 -99 -84 -117 -95 -135
-80 -23 19 -19 40 20 96 86 124 362 290 830 500 169 75 443 184 465 184 6 0
38 11 70 25 73 31 260 83 277 77 6 -2 19 -15 28 -29z m230 -3 c13 -6 15 -9 5
-9 -8 0 -22 4 -30 9 -18 12 -2 12 25 0z m-179 -155 c20 -30 14 -40 -33 -56
-199 -65 -1256 -587 -1490 -736 -56 -36 -106 -62 -111 -59 -14 9 -21 59 -11
77 13 26 140 117 280 202 105 63 477 257 494 257 2 0 51 23 107 51 57 28 150
71 208 94 58 24 150 62 205 85 115 48 292 109 317 109 10 1 25 -10 34 -24z
m346 -273 c-7 -2 -10 -7 -7 -12 2 -4 -4 -15 -15 -25 -11 -10 -20 -15 -20 -11
0 4 -13 -7 -29 -23 -16 -16 -32 -27 -36 -23 -3 3 -3 -1 1 -11 4 -13 1 -17 -15
-17 -12 0 -21 -5 -21 -12 0 -9 -3 -9 -12 0 -9 9 -8 15 7 27 94 70 127 98 132
111 3 7 10 11 16 7 8 -5 7 -8 -1 -11z m-7295 -99 c3 -7 -4 -9 -16 -6 -12 3
-18 9 -15 15 7 11 26 6 31 -9z m7103 -41 c0 -5 -11 -14 -25 -20 -16 -7 -25 -8
-25 -1 0 5 10 14 23 19 29 11 27 11 27 2z m172 -13 c2 -5 18 -11 36 -11 42 -1
20 -18 -23 -18 -19 0 -25 -3 -17 -8 9 -6 6 -12 -13 -20 -15 -7 -25 -8 -25 -2
0 6 6 10 13 11 10 0 10 2 0 6 -7 2 -13 9 -13 14 0 11 22 38 32 39 3 0 8 -5 10
-11z m93 1 c13 -6 15 -9 5 -9 -8 0 -22 4 -30 9 -18 12 -2 12 25 0z m-6876 -35
c17 -8 31 -25 35 -42 3 -15 9 -175 12 -354 l7 -326 -40 -54 c-57 -77 -70 -107
-75 -170 -4 -55 -4 -56 31 -75 73 -39 102 -154 60 -240 -15 -33 -32 -49 -72
-68 -66 -34 -116 -33 -178 1 -65 35 -94 81 -93 148 2 87 55 155 138 177 l42
11 -4 87 -4 86 41 48 c22 26 45 55 50 64 5 9 11 176 12 370 2 193 5 352 7 352
2 0 16 -7 31 -15z m6416 -55 c-3 -5 -12 -10 -18 -10 -7 0 -6 4 3 10 19 12 23
12 15 0z m202 -30 c-43 -21 -92 -48 -110 -58 -18 -11 -84 -42 -147 -70 -63
-27 -182 -82 -265 -122 -82 -40 -190 -92 -240 -115 -49 -24 -121 -61 -160 -83
-165 -93 -784 -406 -791 -400 -2 2 15 23 36 47 35 38 44 43 70 38 28 -6 30 -4
30 23 0 17 5 30 10 30 6 0 10 -4 10 -10 0 -5 5 -10 10 -10 6 0 10 9 10 20 0
25 9 25 26 3 9 -12 13 -14 14 -5 0 18 25 42 44 42 9 0 16 6 16 13 0 8 4 7 10
-3 8 -12 10 -11 10 8 0 12 5 22 10 22 6 0 10 9 10 19 0 21 -30 37 -40 22 -5
-9 -83 -41 -99 -41 -3 0 23 16 59 34 52 27 67 31 73 20 9 -16 67 -19 67 -4 0
6 -9 10 -20 10 -12 0 -20 7 -20 16 0 10 5 14 16 10 8 -3 13 -2 10 2 -6 11 142
84 155 77 5 -4 9 -1 9 4 0 14 215 122 225 113 5 -4 5 -2 2 4 -9 16 17 25 53
17 25 -5 29 -9 25 -27 -5 -17 -4 -18 4 -6 7 10 11 11 11 3 0 -14 26 -13 48 1
7 4 16 6 19 3 3 -3 23 5 44 19 21 13 43 24 49 24 5 0 10 5 10 11 0 6 6 9 14 6
8 -3 20 1 26 9 15 17 34 19 24 2 -4 -7 -3 -8 4 -4 7 4 12 18 12 32 0 15 6 24
16 24 15 0 50 28 43 34 -2 2 -23 6 -46 10 -41 6 -43 5 -43 -19 0 -18 -5 -25
-20 -25 -13 0 -18 5 -14 15 5 11 2 14 -12 9 -35 -13 -9 5 54 36 34 17 68 28
74 24 6 -4 8 -3 5 3 -3 5 22 23 57 40 61 30 62 30 64 10 1 -18 -1 -19 -9 -7
-8 11 -12 12 -16 2 -2 -6 -9 -10 -14 -6 -5 3 -9 -4 -9 -14 0 -24 -30 -38 -41
-20 -4 7 -12 9 -16 4 -4 -5 -2 -11 5 -13 6 -3 12 -14 12 -26 0 -18 2 -19 10
-7 5 8 10 10 10 4 0 -7 19 -14 41 -16 35 -3 43 0 51 18 8 16 18 21 37 19 14
-2 46 6 71 18 44 21 51 23 69 26 5 0 7 9 4 19 -4 15 4 21 39 28 24 6 42 15 41
21 -1 5 9 9 22 8 13 -2 35 3 50 11 15 8 34 14 41 14 8 0 14 5 14 12 0 6 2 9 6
6 3 -3 22 3 42 13 20 10 42 18 47 18 6 0 -25 -18 -68 -39z m-283 -15 c-7 -17
-20 -20 -28 -6 -4 5 0 12 6 14 23 9 28 7 22 -8z m-79 -25 c-3 -5 -1 -10 5 -10
6 0 8 -5 4 -11 -4 -7 -10 -7 -16 -1 -9 9 -3 32 8 32 3 0 2 -4 -1 -10z m660
-103 c-6 -28 -17 -37 -103 -80 -53 -27 -104 -54 -114 -61 -12 -9 -17 -35 -22
-114 -3 -56 -3 -102 0 -102 2 0 49 23 104 50 55 28 101 50 104 50 7 0 16 -67
11 -82 -4 -9 -55 -42 -116 -74 l-109 -59 0 -87 c0 -48 4 -89 8 -92 4 -2 50 14
102 36 141 59 130 59 130 -3 l0 -54 -88 -39 c-48 -22 -120 -54 -159 -72 -52
-23 -75 -29 -80 -21 -4 7 -9 170 -11 363 -4 336 -4 351 14 357 11 3 87 42 169
86 l150 80 9 -25 c4 -14 5 -39 1 -57z m-7327 56 c-10 -2 -26 -2 -35 0 -10 3
-2 5 17 5 19 0 27 -2 18 -5z m700 -379 l4 -289 -95 -92 c-52 -51 -99 -93 -106
-93 -6 0 -11 13 -11 28 0 30 33 81 91 142 l34 35 3 308 3 308 37 -29 37 -30 3
-288z m-449 104 c-1 -106 -3 -185 -6 -176 -2 10 -10 15 -19 11 -8 -3 -14 0
-14 6 0 6 -6 11 -13 11 -9 0 -11 12 -9 40 4 36 2 40 -19 40 -13 0 -34 3 -46 6
l-23 6 26 44 c14 24 21 44 15 44 -6 0 -11 8 -11 18 0 14 -2 15 -10 2 -12 -20
-33 0 -24 23 4 12 19 17 53 18 25 0 40 3 34 6 -28 11 -13 33 22 33 32 0 35 2
35 30 0 17 2 30 5 30 3 0 4 -87 4 -192z m4375 159 c14 -10 26 -24 26 -32 0
-24 -46 -48 -79 -40 -38 8 -246 -11 -369 -35 -232 -44 -537 -193 -1112 -542
-113 -68 -223 -136 -245 -150 -22 -15 -52 -30 -67 -33 -29 -7 -29 -12 -7 77 9
34 19 42 132 107 67 39 165 97 218 129 211 125 397 236 449 267 198 117 466
221 675 261 102 20 344 14 379 -9z m2255 -122 c52 -27 56 -80 8 -112 -39 -27
-54 -28 -78 -7 -17 15 -21 15 -51 -3 -48 -28 -78 -78 -78 -129 0 -24 5 -46 10
-49 6 -4 52 -11 103 -15 81 -8 95 -12 115 -35 18 -22 22 -38 22 -96 0 -172
-116 -325 -261 -345 -40 -5 -48 -2 -83 28 l-40 35 34 41 c39 50 62 59 92 38
34 -24 54 -20 98 20 45 41 63 88 58 154 l-3 45 -75 -3 c-70 -3 -78 -2 -118 28
-75 54 -84 134 -26 248 64 129 189 201 273 157z m-6749 -22 c0 -11 -3 -14 -8
-7 -4 6 -14 14 -22 17 -10 4 -8 6 8 6 15 1 22 -5 22 -16z m771 -16 l27 -22 3
-185 c2 -102 3 -309 1 -460 l-2 -275 -121 -125 c-111 -114 -120 -126 -108
-145 31 -49 39 -73 39 -116 0 -93 -66 -168 -162 -184 -56 -10 -122 25 -160 84
-26 40 -29 53 -25 99 12 121 115 202 212 168 17 -6 33 7 92 81 39 48 90 106
112 128 l41 39 0 316 c0 331 9 620 19 620 3 -1 18 -11 32 -23z m3634 -24 c-12
-71 -8 -68 -112 -80 -163 -20 -343 -79 -583 -193 -227 -107 -348 -169 -495
-255 -49 -29 -175 -101 -280 -160 -104 -59 -208 -120 -230 -135 -22 -15 -55
-35 -73 -44 l-33 -17 7 48 c9 66 21 93 39 93 17 0 106 43 145 70 55 39 351
217 445 268 55 29 105 58 111 63 28 23 369 195 475 240 137 57 439 132 557
138 33 1 33 1 27 -36z m-3380 -201 c10 -39 4 -1111 -6 -1118 -6 -3 -34 -42
-65 -87 -49 -74 -53 -83 -37 -92 59 -33 103 -111 103 -182 0 -38 -39 -112 -71
-136 -34 -25 -100 -37 -145 -27 -40 9 -97 50 -121 86 -20 31 -22 128 -3 164
21 41 71 89 101 95 33 7 34 8 107 121 l57 89 3 577 3 576 34 -21 c18 -12 36
-33 40 -45z m5330 18 c25 -26 29 -39 33 -110 4 -72 2 -85 -23 -134 -15 -30
-45 -75 -66 -101 l-38 -46 39 -62 c22 -34 53 -84 70 -111 16 -26 30 -54 30
-60 0 -13 -96 -63 -104 -55 -2 2 -23 47 -45 98 -23 52 -51 105 -62 118 -20 20
-24 21 -49 8 -36 -18 -40 -36 -40 -180 0 -66 -4 -125 -8 -131 -8 -13 -66 -44
-80 -44 -6 0 -9 143 -8 370 0 203 5 370 10 370 5 0 41 19 80 43 142 86 199 92
261 27z m-1995 -33 l0 -42 -62 -13 c-111 -21 -297 -97 -568 -231 -280 -138
-694 -352 -845 -437 -49 -28 -126 -70 -170 -94 -44 -23 -95 -53 -113 -67 l-32
-24 6 43 c16 111 14 108 136 175 62 34 151 80 197 103 45 22 106 55 135 74 28
18 101 59 161 91 61 32 121 66 135 75 49 34 487 239 630 295 150 59 274 93
348 94 l42 1 0 -43z m1560 -370 c0 -322 -4 -346 -73 -449 -104 -155 -229 -179
-297 -58 -25 44 -25 48 -28 321 l-4 275 38 12 c27 8 40 8 45 1 4 -6 10 -118
14 -250 6 -191 10 -245 24 -270 27 -53 44 -58 93 -24 81 58 82 61 89 393 3
161 8 294 10 296 6 6 72 34 82 35 4 1 7 -126 7 -282z m-4665 -377 c-5 -447
-19 -1158 -24 -1167 -1 -1 -27 -20 -59 -42 -32 -23 -74 -60 -93 -84 -62 -73
-72 -102 -77 -211 -3 -60 -8 -93 -13 -85 -6 10 -9 11 -9 2 0 -27 -19 -11 -30
25 -13 40 -30 65 -30 43 0 -7 -4 -9 -10 -6 -12 7 -14 145 -2 145 5 0 9 6 10
13 0 6 7 29 14 50 12 34 16 37 50 37 31 0 38 4 38 20 0 13 7 20 20 20 13 0 20
7 20 20 0 11 -4 20 -10 20 -5 0 -10 9 -10 20 0 11 -4 20 -10 20 -5 0 -10 -9
-10 -20 0 -11 -5 -20 -11 -20 -8 0 -10 15 -7 45 5 41 3 47 -21 63 -14 10 -39
19 -55 20 -16 1 -32 5 -35 8 -3 4 5 5 20 2 14 -2 31 1 37 9 17 18 35 16 28 -3
-3 -8 -2 -12 4 -9 6 3 10 13 10 22 0 10 6 13 16 9 8 -3 12 -2 9 4 -3 6 -2 10
3 10 22 0 124 98 143 137 21 43 21 54 20 775 l-2 731 41 -34 40 -34 -5 -555z
m-1235 563 c-8 -3 -20 -10 -26 -14 -7 -5 -11 -3 -11 6 0 10 10 15 26 14 16 0
20 -3 11 -6z m1411 -180 l34 -38 -6 -776 c-7 -826 -7 -834 -54 -834 -29 0 -37
64 -31 240 3 83 7 441 7 798 1 356 5 647 9 647 3 0 22 -17 41 -37z m3975 -64
c37 -35 44 -79 44 -285 0 -220 -8 -260 -75 -359 -45 -67 -111 -114 -171 -122
-45 -6 -101 26 -121 67 -8 17 -13 101 -14 246 l-3 221 32 66 c77 156 231 239
308 166z m-4850 -41 c4 -7 3 -8 -4 -4 -14 8 -15 4 -6 -18 3 -9 12 -16 20 -16
20 0 19 -99 -2 -128 -18 -26 -104 -91 -154 -117 l-35 -17 36 38 c57 62 69 89
81 179 9 73 13 84 32 88 11 2 22 5 23 6 1 0 5 -4 9 -11z m3864 -68 c52 -18
101 -34 109 -36 16 -5 -137 -93 -339 -194 -75 -37 -158 -81 -186 -98 -28 -16
-107 -58 -175 -93 -68 -35 -178 -94 -244 -133 -66 -38 -181 -101 -255 -141
-74 -39 -198 -105 -275 -147 -77 -42 -153 -83 -170 -92 -16 -9 -64 -32 -106
-51 -132 -60 -257 -158 -300 -235 -19 -33 -20 -33 -16 -8 2 15 0 25 -4 22 -9
-5 -5 -435 6 -654 4 -84 3 -140 -3 -149 -6 -8 -30 -17 -54 -20 -42 -6 -44 -5
-71 35 -15 23 -51 63 -79 90 l-53 49 0 135 c-1 74 -5 192 -9 261 l-9 126 54
40 c124 93 154 151 153 298 0 117 -17 167 -84 239 -23 25 -40 52 -38 61 2 12
20 5 83 -35 83 -52 155 -80 211 -80 17 0 61 9 97 20 74 23 423 194 625 307
152 85 362 196 702 371 124 63 239 124 255 134 35 22 49 20 175 -22z m-2764
-28 l31 -28 6 -334 c4 -183 7 -524 7 -757 0 -275 3 -423 10 -423 6 0 10 5 10
10 0 6 6 10 13 10 21 0 67 50 67 73 0 27 10 41 32 50 9 3 22 21 27 39 8 24 10
-34 7 -213 l-4 -246 -48 -46 c-53 -49 -112 -138 -125 -190 -8 -28 -8 -27 -4
11 3 25 1 42 -5 42 -5 0 -10 -12 -10 -27 0 -40 -10 -50 -53 -58 -45 -9 -66 5
-59 40 3 18 0 25 -12 25 -9 0 -16 8 -17 18 0 14 -2 14 -9 -3 -8 -19 -9 -19 -9
2 -1 14 10 28 32 42 46 29 124 111 137 145 11 29 15 171 6 213 -3 13 -21 44
-40 69 l-36 47 0 758 c0 418 3 759 8 759 4 0 21 -13 38 -28z m3284 -37 c38
-20 70 -66 70 -102 0 -29 -24 -59 -65 -81 -17 -9 -21 -7 -31 21 -17 51 -43 46
-102 -18 -73 -80 -83 -121 -80 -320 l3 -158 28 -21 28 -21 47 26 c31 18 54 40
69 69 33 62 42 70 79 70 69 0 52 -77 -39 -176 -114 -125 -228 -141 -299 -42
-22 32 -23 39 -23 244 l0 211 43 85 c67 131 160 226 225 228 10 0 31 -7 47
-15z m-3056 -170 c19 -14 19 -22 9 -182 -10 -157 -24 -233 -43 -233 -15 0 -20
65 -20 257 0 212 -3 203 54 158z m4666 5 c0 -5 -5 -10 -11 -10 -5 0 -7 5 -4
10 3 6 8 10 11 10 2 0 4 -4 4 -10z m-40 -20 c-8 -5 -19 -10 -25 -10 -5 0 -3 5
5 10 8 5 20 10 25 10 6 0 3 -5 -5 -10z m-1930 -47 c0 -27 -4 -53 -8 -59 -4 -6
-38 -28 -76 -49 l-68 -38 6 -65 c4 -36 4 -179 0 -318 l-7 -253 -49 -30 c-42
-26 -50 -28 -55 -15 -3 9 -3 153 1 320 5 188 4 304 -2 304 -5 0 -35 -11 -66
-25 -31 -14 -61 -25 -67 -25 -6 0 -9 20 -7 47 l3 47 150 76 c83 42 168 88 190
102 22 15 43 27 48 27 4 1 7 -20 7 -46z m-4362 -43 c-36 -32 -71 -72 -77 -88
-13 -31 -45 -41 -36 -11 4 10 -1 21 -10 26 -10 6 -18 27 -20 55 l-4 45 58 2
c32 1 78 8 102 15 24 8 46 14 48 15 2 1 -25 -26 -61 -59z m1851 -56 c20 -25
21 -40 21 -215 0 -161 2 -189 15 -189 22 0 91 -65 105 -100 18 -44 9 -140 -18
-177 -43 -61 -159 -86 -228 -50 -46 24 -102 91 -110 131 -17 91 38 181 127
209 17 5 17 9 35 310 7 116 16 128 53 81z m4101 -8 c0 -2 -11 -11 -25 -20 -14
-9 -25 -13 -25 -8 0 5 10 14 23 20 27 13 27 13 27 8z m-150 -76 c-8 -5 -19
-10 -25 -10 -5 0 -3 5 5 10 8 5 20 10 25 10 6 0 3 -5 -5 -10z m-1886 -27 c-4
-16 -29 -82 -56 -148 -27 -66 -61 -152 -76 -190 l-26 -71 72 -114 c39 -63 82
-131 95 -150 l24 -35 -61 -37 c-33 -21 -64 -38 -67 -38 -5 0 -64 100 -107 183
l-20 37 -21 -49 c-27 -64 -65 -171 -85 -241 -13 -47 -21 -59 -53 -77 -21 -11
-48 -24 -61 -28 -22 -6 -23 -5 -16 32 7 42 83 245 138 368 20 44 36 85 36 91
0 6 -32 51 -71 100 -77 95 -109 143 -109 160 0 5 29 21 64 35 l64 25 16 -36
c9 -20 35 -63 58 -95 l42 -59 9 30 c5 16 31 85 58 154 48 122 50 126 96 151
62 34 65 34 57 2z m1817 -7 c-1 -3 -3 -6 -6 -6 -13 1 -71 -35 -82 -49 -6 -9
-15 -13 -19 -8 -9 9 -10 8 51 45 46 29 58 32 56 18z m-141 -76 c-35 -24 -54
-31 -30 -11 14 11 30 21 35 21 6 0 3 -5 -5 -10z m-75 -40 c-3 -5 -12 -10 -18
-10 -7 0 -6 4 3 10 19 12 23 12 15 0z m-35 -20 c0 -5 -9 -10 -20 -10 -11 0
-20 -4 -20 -10 0 -5 -7 -10 -16 -10 -8 0 -13 -4 -10 -8 5 -8 -38 -38 -59 -42
-5 -1 -9 -6 -8 -10 2 -5 -6 -7 -17 -5 -14 3 -17 -1 -13 -12 4 -10 2 -14 -5 -9
-6 3 -14 2 -17 -4 -9 -15 -105 -60 -127 -60 -12 0 -16 -4 -12 -12 5 -8 2 -9
-9 -5 -9 3 -19 2 -22 -3 -4 -6 -16 -10 -28 -10 -17 0 -19 2 -7 9 8 6 18 7 22
5 4 -3 8 -1 8 4 0 12 109 77 247 149 111 57 113 58 113 43z m-2094 -155 c4
-27 2 -50 -4 -58 -6 -6 -63 -39 -126 -72 l-116 -59 0 -98 c0 -54 2 -98 5 -98
3 0 53 22 110 49 57 27 106 46 109 43 11 -10 6 -81 -6 -92 -17 -15 -167 -99
-197 -111 -18 -7 -22 -14 -17 -32 3 -12 6 -53 6 -90 l0 -68 118 61 c64 33 121
60 125 60 4 0 7 -28 7 -63 l0 -62 -169 -88 c-93 -48 -173 -87 -178 -87 -11 0
-28 695 -18 721 3 8 45 34 93 57 48 23 121 62 162 86 41 25 78 45 82 45 4 1
10 -19 14 -44z m1681 -68 c0 -8 -6 -14 -14 -14 -9 0 -10 4 -2 14 6 7 12 13 14
13 1 0 2 -6 2 -13z m-50 -34 c-15 -16 -17 -16 -17 -1 0 9 6 18 13 21 20 7 22
-2 4 -20z m-4721 -78 c10 -104 -1 -113 -22 -18 -9 44 -13 50 -13 26 -1 -35
-21 -47 -21 -13 0 13 -7 20 -20 20 -11 0 -20 5 -20 10 0 6 9 10 20 10 11 0 20
4 20 9 0 5 -10 7 -22 4 -17 -3 -19 -2 -9 5 10 8 6 12 -20 18 -32 8 -31 9 26
15 33 3 63 6 66 7 3 1 10 -41 15 -93z m4694 80 c0 -14 -54 -55 -67 -51 -8 3
-11 1 -8 -4 3 -6 -5 -10 -19 -10 -14 0 -26 2 -26 5 0 3 26 18 58 34 64 33 62
33 62 26z m-130 -74 c0 -5 -25 -22 -57 -37 -102 -52 -114 -60 -106 -69 4 -4 2
-5 -5 -1 -6 4 -19 0 -28 -8 -9 -9 -20 -14 -25 -11 -5 4 -9 1 -9 -4 0 -6 -3
-10 -7 -10 -22 4 -32 -3 -27 -16 5 -11 -1 -15 -21 -15 -15 0 -24 -4 -20 -10 3
-5 -3 -10 -14 -10 -14 0 -21 -6 -21 -20 0 -10 -9 -24 -20 -30 -14 -8 -20 -21
-20 -46 l0 -36 -47 4 c-38 4 -61 -1 -110 -24 -34 -16 -65 -33 -69 -39 -4 -8
-9 -7 -15 2 -6 11 -14 7 -37 -14 -18 -18 -35 -25 -45 -21 -10 4 -17 1 -17 -6
0 -6 -6 -10 -12 -8 -7 3 -19 -1 -26 -9 -7 -7 -27 -13 -43 -13 -16 0 -29 -5
-29 -12 0 -6 -3 -8 -6 -5 -9 9 -46 -12 -39 -23 3 -5 0 -12 -6 -16 -8 -4 -9 -3
-5 4 10 17 -10 15 -28 -3 -8 -8 -20 -15 -26 -15 -6 0 -8 -4 -5 -10 4 -6 -1 -7
-12 -3 -10 3 -15 3 -11 -2 8 -8 -28 -45 -44 -45 -4 0 -8 -6 -8 -13 0 -15 -41
-37 -68 -37 -9 0 -22 -8 -29 -19 -6 -10 -24 -21 -40 -24 -32 -5 -96 -29 -103
-38 -11 -14 -71 -39 -80 -34 -5 3 -21 -2 -35 -11 -14 -9 -25 -13 -25 -8 0 4
-6 1 -12 -8 -7 -9 -25 -19 -41 -22 -15 -4 -57 -24 -92 -46 -36 -22 -70 -40
-76 -40 -5 0 -8 -4 -5 -9 7 -10 -22 -24 -34 -16 -4 3 -10 -2 -14 -10 -3 -8
-13 -15 -21 -15 -9 0 -13 -4 -10 -10 3 -5 1 -10 -4 -10 -6 0 -11 5 -11 11 0 8
-5 8 -15 -1 -8 -7 -15 -9 -15 -4 0 5 -4 4 -8 -2 -7 -11 -216 -114 -230 -114
-9 1 338 184 633 335 66 33 146 78 179 98 32 21 108 63 170 92 143 70 354 184
481 262 96 58 378 204 391 202 4 0 10 3 13 8 5 8 110 72 119 73 1 0 2 -4 2 -9z
m-1901 -431 c0 -135 -2 -265 -5 -290 -6 -42 -10 -47 -60 -77 l-54 -31 -33 46
c-51 74 -163 253 -183 295 -10 20 -22 37 -27 37 -6 0 -8 -97 -6 -257 l4 -257
-59 -33 c-32 -18 -60 -32 -60 -31 -1 2 0 175 2 386 l4 383 31 15 c18 9 39 23
48 31 15 12 22 8 66 -41 27 -30 84 -115 128 -188 l80 -133 3 260 3 260 52 26
52 25 7 -90 c3 -50 7 -201 7 -336z m-2591 247 c32 -32 34 -51 6 -40 -8 3 -11
9 -8 14 3 5 -7 20 -23 34 -15 13 -23 25 -17 25 5 0 25 -15 42 -33z m1486 -159
c4 -24 4 -176 0 -339 l-7 -296 44 -29 c24 -16 57 -48 73 -71 59 -85 28 -222
-59 -259 -19 -8 -59 -14 -88 -14 -44 0 -62 6 -96 30 -73 54 -104 128 -82 201
15 51 63 105 107 121 l34 12 0 321 c0 176 3 330 6 343 5 16 14 22 34 22 25 0
28 -4 34 -42z m-640 -208 c53 -47 80 -110 73 -175 -7 -66 -27 -107 -72 -140
-52 -40 -102 -43 -162 -11 -95 52 -131 162 -84 254 36 71 84 100 163 101 39 1
53 -4 82 -29z m61 -500 c-3 -5 -12 -10 -18 -10 -7 0 -6 4 3 10 19 12 23 12 15
0z m1560 -30 c-3 -5 -14 -10 -23 -10 -15 0 -15 2 -2 10 20 13 33 13 25 0z
m-45 -15 c0 -21 -316 -196 -352 -194 -7 0 5 8 27 17 71 30 221 112 271 147 51
36 54 38 54 30z m-1333 -82 c-3 -10 -5 -4 -5 12 0 17 2 24 5 18 2 -7 2 -21 0
-30z m723 -20 c-4 -56 -5 -57 -8 -14 -3 38 2 71 10 71 2 0 1 -26 -2 -57z
m-640 -195 c0 -4 -7 -5 -15 -2 -8 4 -15 16 -15 28 1 21 1 21 15 2 8 -11 15
-23 15 -28z m35 -28 c3 -6 -1 -7 -9 -4 -18 7 -21 14 -7 14 6 0 13 -4 16 -10z"/>
<path d="M3330 7980 c0 -5 5 -10 10 -10 6 0 10 5 10 10 0 6 -4 10 -10 10 -5 0
-10 -4 -10 -10z"/>
<path d="M3170 7900 c0 -5 5 -10 10 -10 6 0 10 5 10 10 0 6 -4 10 -10 10 -5 0
-10 -4 -10 -10z"/>
<path d="M5510 8289 c-532 -60 -929 -206 -1285 -474 -132 -99 -228 -192 -311
-302 -55 -73 -139 -211 -133 -217 2 -2 33 -21 68 -41 35 -21 97 -69 137 -108
74 -70 99 -112 74 -127 -23 -14 -72 12 -159 87 -107 93 -119 99 -249 129 -159
37 -353 43 -490 15 -254 -53 -571 -194 -827 -368 -161 -109 -275 -199 -281
-220 -4 -14 2 -35 15 -57 25 -40 245 -255 486 -476 173 -158 528 -487 690
-640 49 -47 160 -148 245 -225 332 -300 701 -662 774 -758 33 -43 22 -44 181
19 61 24 123 46 138 50 19 4 41 24 64 55 63 88 415 305 659 408 349 145 608
168 866 75 38 -14 72 -24 74 -21 2 2 -11 15 -30 28 -108 78 -566 516 -566 542
0 22 61 33 91 16 13 -7 103 -85 199 -174 96 -88 216 -195 265 -237 50 -42 108
-95 130 -117 60 -62 52 -69 139 123 127 279 380 514 698 649 128 55 370 135
548 183 216 58 233 63 273 87 l38 23 -98 95 c-127 123 -249 226 -294 249 -19
10 -76 56 -125 102 -93 86 -568 511 -735 659 -93 82 -451 403 -734 660 -77 70
-185 170 -239 223 l-99 96 -61 -1 c-34 -1 -95 -5 -136 -10z m240 -99 c47 -92
38 -102 -37 -45 -41 31 -53 35 -106 35 l-60 0 25 -32 c51 -66 67 -72 153 -59
69 11 78 11 108 -6 33 -20 46 -48 29 -65 -6 -6 -61 -7 -148 -3 l-139 8 -93 91
c-85 83 -91 91 -71 98 28 11 210 36 266 37 42 1 43 1 73 -59z m-502 -107 c-3
-17 -35 -32 -203 -97 -325 -125 -639 -292 -812 -433 -49 -40 -53 -41 -53 -21
0 25 108 135 182 186 60 41 427 223 518 257 41 15 112 43 157 62 78 32 172 61
201 62 8 1 12 -7 10 -16z m152 -98 c15 -18 7 -28 -35 -43 -35 -12 -262 -109
-415 -177 -104 -46 -346 -170 -442 -226 -57 -34 -68 -36 -68 -11 0 25 20 41
125 102 173 100 398 204 595 275 36 13 99 39 140 58 89 42 84 41 100 22z m408
-127 c-2 -17 -20 -30 -80 -55 -114 -47 -117 -13 -3 46 72 37 88 39 83 9z
m-267 -8 c-13 -11 -31 -20 -40 -20 -12 0 -10 5 9 20 34 27 63 26 31 0z m-121
-65 c-6 -8 -35 -23 -63 -34 -47 -18 -258 -113 -350 -158 -36 -17 -37 -19 -32
-59 l6 -42 -54 -6 c-30 -4 -76 -14 -102 -22 -56 -16 -95 -18 -95 -4 0 17 44
34 100 40 52 5 56 7 73 43 10 21 28 42 42 47 14 5 25 13 25 18 0 15 230 129
325 161 102 34 145 40 125 16z m610 -35 c0 -3 -48 -27 -107 -53 -232 -100
-339 -150 -355 -164 -16 -14 -18 -13 -29 11 -7 14 -10 27 -8 29 2 1 51 25 109
51 58 27 139 65 180 84 41 19 100 46 130 58 51 22 56 22 68 7 6 -9 12 -20 12
-23z m129 -109 c12 -22 4 -31 -49 -51 -19 -8 -98 -44 -175 -81 l-140 -68 -18
21 c-10 12 -14 24 -10 28 4 4 64 30 133 59 69 29 150 66 180 82 66 34 67 34
79 10z m-1745 -146 c-4 -8 -11 -15 -16 -15 -6 0 -5 6 2 15 7 8 14 15 16 15 2
0 1 -7 -2 -15z m1015 -5 c11 -7 -13 -8 -79 -4 -52 3 -99 11 -105 16 -13 14
161 2 184 -12z m189 -65 c45 -21 69 -45 43 -45 -15 0 -156 61 -166 72 -16 17
63 0 123 -27z m510 13 c-4 -11 -103 -67 -120 -68 -5 0 -8 9 -8 20 0 15 13 26
43 40 49 22 91 26 85 8z m307 -29 c4 -11 5 -23 2 -25 -3 -3 -50 -22 -105 -43
-55 -21 -126 -52 -158 -70 -68 -37 -84 -39 -84 -8 0 19 11 26 73 46 39 13 74
27 77 31 5 8 170 89 182 90 4 0 10 -9 13 -21z m-1965 -49 c0 -8 -51 -40 -65
-40 -13 0 -3 30 13 39 22 13 52 14 52 1z m823 -55 c101 -17 155 -35 254 -80
155 -71 310 -201 381 -318 72 -120 110 -294 91 -417 -11 -69 -48 -200 -56
-200 -3 0 -3 10 0 21 4 16 3 19 -5 11 -6 -6 -17 -8 -24 -5 -16 6 -25 -3 -79
-74 -22 -28 -73 -77 -113 -108 -40 -31 -70 -60 -67 -65 3 -4 -3 -6 -12 -4 -22
6 -84 -31 -81 -48 2 -6 -5 -14 -16 -16 -13 -3 -16 0 -11 9 5 8 4 10 -4 5 -7
-4 -57 -23 -111 -42 -102 -34 -227 -61 -314 -67 -62 -4 -226 17 -286 36 -25 8
-72 23 -105 32 -76 21 -222 96 -289 148 -77 60 -83 64 -55 32 30 -33 46 -75
30 -75 -5 0 -15 8 -21 18 -7 10 -10 11 -7 2 4 -16 62 -51 88 -53 10 -1 15 -5
13 -9 -3 -4 0 -17 6 -28 7 -13 7 -20 0 -20 -5 0 -10 4 -10 8 0 5 -6 9 -13 9
-43 0 -208 153 -278 257 -59 88 -79 165 -79 307 0 140 11 200 55 294 97 209
362 387 650 439 109 19 360 20 468 1z m625 -45 c26 -19 42 -38 42 -51 0 -21 0
-21 -28 -2 -87 58 -102 69 -102 76 0 17 50 5 88 -23z m672 15 c10 -13 -1 -21
-75 -56 -47 -22 -89 -38 -92 -35 -13 13 32 59 80 82 61 28 70 29 87 9z m-283
-62 c50 -57 51 -71 9 -110 -20 -19 -40 -31 -45 -29 -11 7 -25 152 -16 166 10
16 16 13 52 -27z m-2839 -62 c18 -11 -23 -26 -113 -42 -176 -30 -456 -150
-645 -277 -58 -38 -107 -69 -108 -67 -27 26 111 127 308 227 215 109 506 192
558 159z m3260 -23 c19 -19 15 -24 -29 -37 -55 -17 -200 -88 -272 -134 -31
-20 -61 -37 -66 -37 -5 0 -14 13 -19 29 -10 28 -9 30 32 45 24 9 51 13 61 10
13 -5 16 -4 10 5 -6 11 -3 11 16 0 21 -11 22 -10 12 3 -11 12 5 23 100 71 118
59 136 64 155 45z m-639 -36 c15 -22 17 -32 9 -40 -7 -7 -16 -12 -20 -12 -9 0
-48 59 -48 73 0 19 41 4 59 -21z m-2589 -77 c0 -23 -50 -49 -184 -96 -133 -47
-361 -145 -443 -190 -112 -62 -140 -57 -50 9 85 63 229 131 487 230 178 68
190 71 190 47z m3388 -32 c-2 -11 -26 -27 -63 -41 -33 -13 -138 -61 -232 -108
-95 -47 -177 -82 -183 -79 -5 3 -10 17 -10 29 0 19 10 27 48 41 26 10 88 37
137 61 88 43 267 112 293 113 8 1 12 -7 10 -16z m-707 -25 c11 -13 26 -36 35
-52 13 -24 14 -30 2 -37 -7 -5 -17 -9 -21 -9 -7 0 -57 101 -57 115 0 13 24 3
41 -17z m-2481 -23 c0 -1 -48 -21 -107 -45 -60 -23 -112 -46 -118 -50 -5 -4
-44 -22 -85 -40 -41 -18 -140 -61 -218 -97 -79 -35 -203 -87 -275 -114 -73
-28 -159 -64 -191 -80 -33 -16 -61 -29 -63 -29 -3 0 -3 9 -1 21 2 15 28 31
103 63 55 24 134 59 175 78 41 19 93 41 115 48 66 20 378 147 472 191 101 47
162 68 181 62 6 -3 12 -6 12 -8z m3320 -83 c0 -8 -199 -122 -212 -122 -3 0
-46 -19 -95 -41 -48 -23 -92 -43 -98 -46 -5 -2 5 9 24 25 29 27 224 132 243
132 4 0 29 14 55 30 45 29 83 39 83 22z m-4575 -12 c4 -6 11 -81 16 -168 6
-86 11 -168 12 -181 1 -18 -7 -31 -32 -48 -19 -13 -39 -23 -45 -23 -23 1 -193
148 -224 195 l-34 50 29 23 c15 12 64 43 108 69 44 26 94 57 110 70 33 25 50
29 60 13z m3841 -115 c18 -44 18 -75 0 -75 -8 0 -21 -3 -29 -6 -12 -4 -17 6
-22 45 -4 27 -4 55 0 61 13 20 36 9 51 -25z m-2648 4 c2 -11 -11 -19 -49 -27
-61 -14 -51 -10 -404 -180 -486 -234 -510 -244 -503 -201 2 15 20 28 63 45 59
24 393 190 450 224 40 23 182 84 298 126 97 35 140 39 145 13z m3547 -30 c0
-16 -62 -53 -130 -75 -68 -23 -398 -190 -512 -258 -51 -31 -97 -56 -103 -56
-20 0 -10 37 18 62 15 14 45 35 67 45 22 11 74 39 115 62 130 73 312 159 395
187 44 14 91 32 105 40 29 15 45 13 45 -7z m-3327 -107 c3 -57 1 -62 -18 -62
-18 0 -20 6 -20 66 0 57 2 65 18 62 14 -3 18 -16 20 -66z m2728 39 c-3 -4 -33
-25 -67 -45 -48 -29 -64 -34 -70 -24 -17 26 -7 36 59 56 79 24 85 25 78 13z
m684 -71 c-8 -6 -32 -13 -53 -16 -40 -7 -298 -129 -349 -166 -17 -12 -65 -40
-107 -63 -42 -23 -107 -61 -145 -85 -111 -68 -220 -123 -224 -111 -8 24 24 52
105 94 49 24 116 63 150 86 34 23 111 65 170 95 59 29 156 78 216 109 59 30
133 64 165 75 49 17 59 18 72 5 13 -12 13 -15 0 -23z m-962 -27 c4 -38 -13
-73 -33 -73 -11 0 -15 13 -15 56 0 52 1 55 23 52 17 -2 23 -11 25 -35z m-2650
7 c17 -27 10 -36 -35 -45 -61 -11 -121 -34 -243 -92 -221 -106 -344 -160 -382
-169 -5 -1 -9 -2 -10 -4 -2 -1 -16 -4 -33 -6 -17 -3 -43 -20 -61 -40 -35 -39
-67 -46 -62 -13 2 13 22 32 53 50 48 29 313 159 322 159 3 0 30 15 61 33 83
48 319 142 367 146 6 1 16 -8 23 -19z m214 -90 c1 -16 2 -38 2 -47 1 -13 -7
-18 -24 -18 -23 0 -25 4 -28 48 -3 45 -2 47 22 47 22 0 26 -5 28 -30z m3891
-49 c20 -19 37 -44 37 -55 0 -11 7 -28 17 -38 28 -31 9 -29 -43 3 -101 65
-124 61 -124 -18 l0 -43 55 0 c30 0 75 7 101 16 45 15 46 15 85 -12 32 -22 50
-44 36 -44 -2 0 -53 -9 -113 -20 -60 -11 -137 -20 -171 -20 -86 0 -89 9 -85
203 l2 87 33 1 c17 0 41 4 52 8 23 9 57 -11 118 -68z m-363 50 c0 -19 -4 -21
-120 -61 -78 -27 -372 -170 -490 -238 -172 -99 -333 -203 -433 -280 -133 -102
-129 -99 -113 -61 22 52 89 122 170 177 42 29 78 52 81 52 2 0 46 26 97 57
102 63 541 288 628 323 122 49 180 59 180 31z m-1112 -98 c-3 -54 -5 -58 -29
-61 l-26 -3 10 60 c8 50 13 61 29 61 17 0 19 -7 16 -57z m-2588 -39 c0 -9 -28
-28 -72 -48 -40 -19 -127 -59 -193 -91 -178 -85 -286 -135 -291 -135 -3 0 10
21 28 47 30 42 48 54 188 121 221 106 340 143 340 106z m224 -26 c10 -39 7
-46 -25 -53 -35 -8 -49 4 -49 42 0 38 64 47 74 11z m2002 -35 c-5 -15 -4 -15
9 1 16 22 21 10 5 -14 -7 -11 -12 -12 -21 -3 -6 6 -8 16 -5 22 11 17 19 13 12
-6z m1458 -30 c-10 -7 -54 -27 -98 -44 -271 -104 -602 -291 -767 -433 -42 -36
-79 -62 -83 -59 -26 26 58 120 173 193 40 25 102 65 139 89 203 132 605 307
640 278 11 -9 11 -13 -4 -24z m-1144 -33 c0 -26 -20 -68 -35 -74 -6 -2 -18 -1
-25 4 -10 6 -7 17 11 49 24 43 49 54 49 21z m-3191 -53 c6 -18 12 -54 13 -82
3 -47 2 -50 -23 -53 -27 -3 -27 -3 -31 80 -3 46 -3 86 -1 90 8 15 33 -5 42
-35z m735 -13 c8 -21 13 -17 -59 -43 -56 -21 -516 -252 -542 -273 -12 -10 -29
25 -19 41 8 12 190 116 241 137 37 15 78 34 265 123 73 35 105 39 114 15z
m341 -166 c-23 -17 -49 -5 -101 43 -30 29 -54 55 -54 59 0 4 10 12 23 18 20 9
28 4 82 -51 35 -36 56 -65 50 -69z m2022 58 c-3 -7 -24 -27 -46 -45 -55 -44
-54 -19 2 51 38 48 42 51 45 30 2 -13 1 -29 -1 -36z m-1602 -36 c4 -6 10 -8
15 -5 5 3 11 1 15 -5 3 -5 19 -10 34 -10 15 0 36 -9 46 -20 10 -11 29 -20 42
-20 13 0 22 -4 18 -9 -6 -11 -33 -4 -115 29 -54 21 -96 50 -73 50 7 0 15 -5
18 -10z m1020 -40 c-3 -5 -12 -10 -18 -10 -7 0 -6 4 3 10 19 12 23 12 15 0z
m-165 -14 c0 -7 11 -16 25 -18 14 -3 25 -2 25 1 0 3 15 6 33 7 32 1 32 1 -11
-17 -160 -69 -436 -90 -615 -49 -84 20 -90 31 -15 27 36 -1 65 0 63 3 -2 4 18
6 46 6 27 0 45 -2 40 -5 -17 -11 174 -3 202 8 16 6 42 11 58 11 16 0 29 5 29
12 0 6 2 9 5 6 3 -3 27 1 53 8 61 16 62 16 62 0z m-1481 -20 c9 -10 8 -15 -2
-19 -8 -3 -13 3 -13 14 0 23 0 23 15 5z m-170 -1 c-11 -11 -127 -83 -159 -98
l-35 -18 30 30 c32 33 131 91 154 91 8 0 12 -2 10 -5z m2271 -10 c-7 -9 -15
-13 -17 -11 -7 7 7 26 19 26 6 0 6 -6 -2 -15z m-1696 -75 c47 -25 84 -49 83
-54 -2 -5 -11 -14 -20 -20 -14 -9 -34 -3 -94 29 -78 41 -90 53 -79 81 7 19 2
20 110 -36z m-254 -49 c0 -5 -21 -23 -47 -39 -27 -17 -82 -54 -123 -82 -41
-28 -99 -63 -129 -77 -31 -16 -61 -39 -70 -55 -19 -34 -35 -35 -55 -6 -20 28
-15 34 52 65 32 15 82 42 112 62 114 72 234 141 247 141 7 0 13 -4 13 -9z
m508 -72 c26 -7 48 -13 50 -14 1 -1 -2 -14 -8 -29 -11 -29 -27 -29 -97 0 -25
10 -30 17 -26 33 6 24 16 25 81 10z m-370 -26 c2 -17 -18 -33 -105 -86 -59
-37 -109 -64 -112 -61 -7 7 45 55 89 81 19 12 51 38 70 57 37 39 53 41 58 9z
m-838 -4 c0 -25 -33 -22 -38 4 -2 12 3 17 17 17 15 0 21 -6 21 -21z m160 -63
c21 -38 21 -40 3 -73 -31 -57 -38 -47 -47 67 -7 83 1 84 44 6z m1298 21 c3
-28 3 -28 -45 -25 -36 2 -49 7 -51 20 -2 12 7 20 30 27 48 14 63 9 66 -22z
m-468 -50 c0 -13 -31 -40 -220 -188 -36 -28 -96 -69 -135 -92 -38 -22 -87 -53
-107 -69 l-38 -30 -10 28 c-17 43 -7 54 50 54 53 0 58 3 118 59 20 19 45 36
57 37 11 1 24 3 28 3 5 1 5 6 2 11 -4 6 -1 9 7 8 7 -2 12 4 10 12 -2 8 0 12 4
8 4 -4 15 1 24 12 21 24 192 159 203 160 4 0 7 -6 7 -13z m-396 -72 c-114 -88
-257 -170 -280 -161 -17 7 -19 42 -1 43 32 3 150 54 217 95 70 43 107 56 64
23z m1480 10 c4 -10 -6 -17 -37 -25 -126 -33 -424 -146 -487 -185 -19 -12 -57
-33 -85 -47 -27 -14 -79 -41 -115 -61 -67 -38 -86 -44 -75 -27 3 6 2 10 -4 10
-19 0 -1 25 37 49 20 14 68 40 107 60 38 19 85 45 104 58 18 13 40 23 47 23 8
0 77 29 153 65 97 45 163 69 218 79 103 19 130 19 137 1z m-905 -12 c-14 -16
-138 -77 -145 -71 -7 7 121 88 139 88 17 0 18 -2 6 -17z m351 13 c0 -8 -139
-96 -200 -126 -36 -18 -102 -57 -147 -86 -132 -87 -180 -98 -92 -21 84 74 300
205 369 223 47 13 70 16 70 10z m735 -176 c-3 -4 -25 -11 -51 -15 -66 -9 -265
-69 -354 -106 -209 -86 -411 -199 -597 -332 -47 -33 -51 -33 -55 3 -3 19 13
34 86 87 237 167 590 331 836 387 l105 24 17 -20 c10 -11 16 -24 13 -28z
m-1034 -220 c-31 -26 -227 -130 -246 -130 -4 0 0 9 10 20 10 11 24 20 31 20 7
0 17 6 21 13 10 17 121 70 152 73 13 2 31 10 40 18 8 9 18 16 21 16 3 -1 -10
-14 -29 -30z m-466 -4 c0 -8 -77 -36 -102 -36 -19 0 -16 27 5 39 20 13 97 10
97 -3z m301 -279 c27 -29 60 -69 73 -88 13 -19 43 -49 67 -67 24 -18 44 -36
44 -41 0 -11 -35 -21 -72 -21 -15 0 -71 -16 -125 -35 -54 -19 -103 -35 -109
-35 -6 0 -35 41 -65 91 -30 50 -69 108 -86 129 -18 21 -33 42 -33 47 0 12 83
39 175 57 39 7 73 14 76 15 4 0 29 -23 55 -52z"/>
<path d="M4521 6922 c-10 -7 -12 -23 -9 -56 7 -59 73 -169 173 -291 106 -129
184 -245 244 -361 60 -118 88 -149 125 -140 15 4 62 47 113 105 49 54 190 206
314 337 124 131 231 249 238 262 15 28 8 53 -19 70 -12 7 -81 17 -158 23 -75
5 -175 14 -222 19 -47 6 -186 15 -310 20 -124 5 -281 12 -350 15 -74 4 -131 2
-139 -3z m544 -122 c116 -10 278 -22 362 -26 150 -6 152 -7 141 -27 -6 -11
-79 -91 -162 -176 -83 -86 -182 -192 -219 -236 -38 -44 -84 -93 -103 -108
l-34 -29 -20 24 c-10 12 -45 72 -77 132 -40 76 -96 156 -183 263 -69 85 -134
169 -144 185 l-20 31 125 -7 c68 -4 219 -15 334 -26z"/>
<path d="M4249 6319 c5 -15 7 -30 4 -33 -4 -3 -1 -6 6 -6 6 0 23 -11 37 -25
53 -53 40 -22 -19 46 -31 35 -36 39 -28 18z"/>
<path d="M2303 6688 c-29 -16 -53 -36 -53 -43 0 -20 38 -63 86 -96 l44 -30 0
69 c0 74 -8 132 -19 131 -3 0 -30 -14 -58 -31z"/>
<path d="M4298 4786 l-37 -11 18 -41 c35 -78 74 -94 152 -61 l28 12 -54 58
c-30 31 -58 57 -62 56 -5 -1 -25 -6 -45 -13z"/>
<path d="M7220 7915 c0 -3 7 -14 16 -23 15 -14 16 -14 13 3 -4 17 -29 35 -29
20z"/>
<path d="M8515 5510 c-3 -5 -2 -10 4 -10 5 0 13 5 16 10 3 6 2 10 -4 10 -5 0
-13 -4 -16 -10z"/>
<path d="M8365 5430 c-3 -5 -2 -10 4 -10 5 0 13 5 16 10 3 6 2 10 -4 10 -5 0
-13 -4 -16 -10z"/>
<path d="M8280 5390 c0 -5 7 -7 15 -4 8 4 15 8 15 10 0 2 -7 4 -15 4 -8 0 -15
-4 -15 -10z"/>
<path d="M8210 5360 c-19 -11 -28 -19 -20 -19 8 0 31 8 50 19 19 11 28 19 20
19 -8 0 -31 -8 -50 -19z"/>
<path d="M8000 5267 c-148 -69 -321 -159 -315 -165 2 -2 28 8 57 24 51 27 77
40 218 109 36 18 76 36 89 40 30 9 90 45 76 45 -5 0 -62 -24 -125 -53z"/>
<path d="M7594 5054 c-18 -14 -18 -15 4 -4 12 6 22 13 22 15 0 8 -5 6 -26 -11z"/>
<path d="M7540 5030 c-13 -8 -13 -10 2 -10 9 0 20 5 23 10 8 13 -5 13 -25 0z"/>
<path d="M7430 4975 c-36 -19 -61 -34 -56 -35 11 0 136 60 136 66 0 9 -17 2
-80 -31z"/>
<path d="M7293 4908 c-13 -6 -23 -15 -23 -20 0 -7 31 8 59 29 10 7 -16 1 -36
-9z"/>
<path d="M6955 4730 c-3 -5 -1 -10 4 -10 6 0 11 5 11 10 0 6 -2 10 -4 10 -3 0
-8 -4 -11 -10z"/>
<path d="M5715 4191 c-6 -5 -127 -69 -270 -141 -143 -73 -264 -137 -270 -143
-7 -7 -6 -8 1 -4 18 10 59 25 65 23 3 0 12 4 20 10 16 14 148 85 151 83 8 -5
48 14 48 22 0 5 7 9 16 9 9 0 49 19 88 43 39 23 97 55 129 70 31 16 57 30 57
33 0 8 -26 4 -35 -5z"/>
<path d="M5020 3830 c-9 -6 -10 -10 -3 -10 6 0 15 5 18 10 8 12 4 12 -15 0z"/>
<path d="M4950 3790 c-9 -6 -10 -10 -3 -10 6 0 15 5 18 10 8 12 4 12 -15 0z"/>
<path d="M4568 3582 c-49 -25 -88 -49 -88 -52 0 -9 144 61 148 71 2 5 10 9 17
9 8 0 17 5 20 10 11 17 -7 10 -97 -38z"/>
<path d="M1786 4099 c-41 -48 -31 -95 25 -124 85 -44 171 64 104 130 -37 38
-95 35 -129 -6z"/>
<path d="M7442 4663 c5 -26 38 -29 38 -4 0 15 -6 21 -21 21 -14 0 -19 -5 -17
-17z"/>
<path d="M7400 4626 c0 -21 11 -46 20 -46 5 0 6 9 3 20 -3 11 0 20 6 20 6 0
11 5 11 10 0 6 -9 10 -20 10 -11 0 -20 -6 -20 -14z"/>
<path d="M7280 4599 c0 -16 30 -43 38 -34 4 4 1 10 -5 12 -7 3 -13 11 -13 19
0 8 -4 14 -10 14 -5 0 -10 -5 -10 -11z"/>
<path d="M2096 3523 c-25 -13 -46 -48 -46 -78 0 -7 12 -27 26 -44 35 -42 92
-44 123 -5 29 37 26 67 -10 102 -39 38 -58 43 -93 25z"/>
<path d="M2495 3145 c-50 -49 -15 -145 52 -145 36 0 83 51 83 90 0 41 -39 80
-80 80 -19 0 -40 -9 -55 -25z"/>
<path d="M7855 4479 c-60 -29 -65 -41 -65 -151 l0 -98 28 0 c34 1 116 60 142
103 22 35 27 115 10 148 -14 25 -62 24 -115 -2z"/>
<path d="M6954 4008 c-76 -54 -94 -120 -94 -340 0 -188 14 -215 94 -179 90 40
110 104 104 338 -3 93 -8 176 -13 186 -10 24 -54 22 -91 -5z"/>
<path d="M3320 1930 c0 -5 9 -10 20 -10 11 0 20 5 20 10 0 6 -9 10 -20 10 -11
0 -20 -4 -20 -10z"/>
<path d="M1800 3623 c0 -10 8 -27 17 -38 14 -18 15 -18 9 -2 -3 10 -6 27 -6
38 0 10 -4 19 -10 19 -5 0 -10 -8 -10 -17z"/>
<path d="M3714 3112 c-27 -4 -50 -29 -59 -63 -5 -19 0 -34 20 -57 38 -45 92
-45 129 -1 28 33 28 58 -1 91 -18 21 -61 35 -89 30z"/>
<path d="M3678 1910 c-51 -39 -45 -84 15 -120 63 -39 127 -16 127 45 0 72 -88
118 -142 75z"/>
<path d="M2987 2380 c-16 -13 -29 -36 -33 -57 -6 -33 -3 -40 29 -70 53 -48
102 -42 132 17 22 43 19 68 -14 101 -35 35 -77 38 -114 9z"/>
</g>
</svg>
