<?xml version="1.0" standalone="no"?>
<!DOCTYPE svg PUBLIC "-//W3C//DTD SVG 20010904//EN"
 "http://www.w3.org/TR/2001/REC-SVG-20010904/DTD/svg10.dtd">
<svg version="1.0" xmlns="http://www.w3.org/2000/svg"
 width="1024.000000pt" height="1024.000000pt" viewBox="0 0 1024.000000 1024.000000"
 preserveAspectRatio="xMidYMid meet">

<g transform="translate(0.000000,1024.000000) scale(0.100000,-0.100000)"
fill="#000000" stroke="none">
<path d="M5435 9483 c-38 -6 -231 -98 -329 -158 -41 -25 -150 -85 -243 -134
-92 -48 -195 -103 -228 -121 -33 -18 -118 -64 -190 -103 -71 -38 -215 -117
-320 -174 -338 -187 -489 -269 -869 -477 -88 -48 -189 -104 -225 -125 -94 -54
-147 -83 -311 -171 -80 -43 -170 -92 -200 -110 -30 -18 -134 -75 -230 -127
-169 -91 -445 -251 -618 -357 -286 -175 -455 -399 -513 -679 -25 -122 -27
-374 -5 -504 50 -287 148 -446 416 -683 63 -56 201 -188 305 -293 105 -106
254 -253 331 -327 78 -74 162 -162 188 -195 l47 -60 4 -188 c3 -136 0 -209
-11 -263 -8 -42 -14 -104 -14 -138 0 -73 2 -70 -134 -161 -49 -33 -96 -71
-105 -84 -13 -20 -17 -62 -21 -204 l-5 -179 -40 -16 c-114 -44 -193 -145 -202
-256 -15 -179 114 -320 292 -321 86 0 130 20 200 90 87 87 109 207 59 315
l-26 55 79 74 c79 74 274 236 309 257 18 11 19 26 16 337 -2 208 0 327 6 331
6 3 33 -20 61 -51 l51 -57 0 -362 c0 -199 -3 -375 -6 -392 -5 -23 -16 -34 -56
-53 -66 -31 -154 -125 -169 -182 -27 -99 18 -232 98 -293 83 -63 230 -82 312
-39 60 31 126 105 141 160 41 146 -12 263 -162 360 -14 9 -17 57 -21 353 l-5
344 48 -54 c28 -30 49 -63 50 -76 0 -18 4 -22 18 -18 13 5 44 -20 119 -96
l100 -103 0 -315 c0 -173 -2 -343 -4 -378 l-5 -62 -131 -99 c-73 -54 -142
-103 -154 -110 -20 -10 -23 -19 -23 -79 l0 -68 -46 -13 c-74 -22 -124 -67
-168 -151 -36 -71 -38 -79 -32 -140 23 -249 300 -362 483 -197 56 51 85 116
91 202 4 62 1 77 -22 123 -36 70 -88 126 -142 152 -24 12 -46 26 -50 31 -12
20 127 153 254 242 l72 51 0 353 c0 198 4 353 9 353 5 0 16 -11 25 -26 10 -14
39 -50 67 -80 l49 -54 0 -645 0 -644 -54 -26 c-104 -49 -162 -151 -151 -264 8
-89 38 -153 95 -204 112 -101 268 -101 380 0 76 68 100 122 97 219 -2 65 -7
87 -29 124 -36 61 -74 96 -149 134 l-64 33 -3 569 c-1 313 0 575 3 583 4 11
13 7 33 -16 15 -17 69 -65 120 -109 50 -43 92 -85 92 -93 4 -236 -3 -751 -11
-812 -13 -110 0 -177 48 -230 73 -81 133 -99 226 -68 112 38 147 79 147 172 0
80 -35 143 -106 190 -51 33 -64 37 -120 37 l-64 0 1 288 c1 158 4 298 8 310 6
22 13 18 116 -74 61 -54 160 -145 221 -204 178 -170 287 -245 400 -275 70 -19
260 -21 347 -4 32 7 61 8 65 5 4 -4 8 -107 9 -229 4 -323 22 -411 66 -329 32
60 47 174 54 404 l6 218 79 46 c90 51 162 84 186 84 10 0 29 -23 47 -57 21
-41 43 -66 75 -87 25 -16 95 -63 155 -105 161 -112 210 -130 245 -94 16 17 14
21 -39 69 -31 29 -86 76 -123 105 -120 97 -213 182 -227 208 -13 24 -12 27 38
73 29 26 60 48 70 48 10 0 49 -27 87 -60 60 -53 231 -174 257 -183 11 -3 11
22 1 -378 l-7 -325 -44 -18 c-64 -27 -137 -97 -163 -158 -29 -67 -25 -170 9
-236 48 -93 148 -161 245 -166 207 -12 358 201 283 396 -21 55 -108 140 -163
160 l-36 13 3 375 3 374 -74 53 c-162 114 -194 139 -229 182 -29 36 -33 45
-21 53 8 4 86 51 174 103 87 52 166 95 175 95 19 0 41 -14 238 -152 76 -54
162 -119 191 -145 52 -47 53 -49 59 -116 3 -38 9 -65 12 -60 3 4 13 9 21 11
29 7 49 34 55 75 3 23 9 57 12 75 5 28 0 37 -33 68 -34 31 -189 145 -330 241
-47 32 -87 80 -78 95 3 4 37 26 76 49 71 42 72 42 101 25 83 -47 401 -289 465
-353 77 -78 105 -89 150 -57 44 31 30 56 -85 154 -113 96 -308 247 -380 295
-24 15 -43 33 -43 39 0 7 19 22 43 34 23 12 49 27 58 33 13 10 32 1 105 -49
120 -83 235 -172 338 -261 l85 -74 1 -251 c0 -138 -3 -389 -6 -559 l-7 -307
-41 -19 c-72 -32 -124 -78 -153 -133 -23 -46 -27 -65 -27 -138 0 -72 4 -92 26
-135 105 -201 356 -219 495 -37 39 51 55 105 54 183 0 100 -67 196 -173 250
-24 12 -45 24 -48 26 -6 6 -1 375 6 430 l6 42 22 -21 c11 -11 46 -32 76 -47
111 -53 254 -27 344 63 72 73 95 221 48 312 -39 74 -131 144 -213 159 l-36 7
5 224 5 223 -25 10 c-13 5 -74 42 -134 83 -60 41 -131 89 -159 108 -94 63
-185 132 -185 140 0 5 39 34 86 65 63 42 92 55 109 51 12 -3 56 -31 96 -63 41
-31 110 -82 154 -114 44 -31 113 -87 153 -124 l72 -67 -24 -29 c-51 -61 -72
-182 -47 -272 17 -57 85 -138 145 -170 33 -17 58 -22 126 -22 98 0 140 17 218
88 62 58 82 104 82 197 0 93 -28 160 -90 213 -71 61 -123 80 -218 84 -70 2
-88 6 -111 25 -15 13 -67 50 -115 83 -139 95 -217 156 -270 208 -53 53 -52 66
5 70 22 1 43 11 59 28 14 15 68 50 120 79 52 29 117 69 144 87 44 31 52 34 75
23 47 -21 185 -117 241 -168 l55 -49 -18 -50 c-15 -43 -16 -59 -7 -118 6 -37
17 -80 26 -96 41 -80 131 -143 218 -155 135 -19 288 78 329 208 20 66 21 107
4 175 -17 66 -61 120 -133 163 -54 33 -64 35 -144 35 -83 0 -122 -11 -171 -46
-14 -10 -28 -4 -85 35 -105 74 -194 140 -194 146 0 3 42 29 93 59 83 48 147
84 402 229 198 112 345 192 408 222 86 42 159 113 181 176 22 66 22 199 -1
241 -25 43 -129 124 -243 186 -27 14 -31 21 -25 40 5 12 10 182 12 377 l5 356
64 33 c113 58 168 142 168 256 1 109 -43 171 -199 284 -33 24 -89 69 -125 100
-130 113 -316 259 -355 279 -22 11 -79 51 -127 88 -47 38 -133 105 -189 149
-113 87 -325 254 -514 404 -66 52 -149 120 -185 151 -36 32 -110 92 -165 135
-55 42 -127 101 -160 130 -114 100 -334 280 -535 440 -392 311 -526 419 -595
480 -38 33 -110 94 -160 135 -49 41 -120 103 -157 137 -85 79 -206 159 -272
178 -55 17 -163 26 -211 18z m176 -186 c76 -38 370 -274 369 -295 0 -4 -33
-29 -71 -56 -93 -64 -133 -69 -215 -28 -32 16 -84 37 -114 47 -30 9 -61 24
-67 33 -7 9 -13 11 -13 4 0 -19 -74 -35 -132 -28 -65 8 -105 32 -188 109 -72
68 -76 60 55 128 204 108 294 128 376 86z m-531 -234 l31 -38 -22 -18 c-12
-10 -61 -38 -108 -64 -47 -25 -140 -75 -206 -111 -66 -35 -174 -94 -240 -129
-66 -36 -178 -98 -250 -138 -71 -40 -186 -103 -255 -140 -230 -125 -533 -291
-705 -387 -93 -52 -231 -127 -305 -168 -74 -40 -184 -100 -245 -134 -146 -81
-225 -119 -232 -112 -3 3 -14 24 -24 46 l-18 39 132 72 c655 355 690 374 820
447 62 35 184 103 272 151 88 49 252 140 365 203 113 63 261 144 330 180 69
36 181 97 250 135 69 39 161 89 205 111 44 22 96 52 115 66 19 14 40 25 47 26
6 0 26 -17 43 -37z m1040 -184 c41 -33 107 -84 145 -112 39 -29 126 -98 195
-155 69 -57 179 -145 244 -195 66 -51 158 -126 206 -167 85 -74 189 -160 366
-302 50 -40 149 -120 219 -178 206 -169 215 -177 320 -257 55 -42 152 -118
215 -168 63 -50 162 -126 220 -169 112 -85 202 -158 262 -214 38 -36 39 -41 6
-85 -13 -18 -19 -16 -89 40 -41 32 -162 125 -269 205 -107 81 -244 185 -305
233 -139 109 -424 335 -577 457 -64 51 -163 129 -220 173 -56 44 -128 103
-158 131 -30 28 -118 100 -195 159 -77 59 -183 145 -235 189 -52 45 -153 126
-225 181 -165 126 -247 197 -265 230 -13 25 -12 28 10 46 14 10 32 19 40 19 9
0 49 -27 90 -61z m-861 -76 c43 -38 42 -81 -2 -129 -23 -26 -43 -37 -73 -41
-23 -3 -44 -1 -48 5 -8 13 30 60 68 83 l31 19 -42 0 c-44 0 -73 -25 -73 -63 0
-21 -19 -18 -34 5 -16 25 20 106 58 129 43 26 78 24 115 -8z m445 -94 c56 -24
86 -67 86 -124 0 -34 -7 -48 -42 -87 -63 -69 -121 -82 -217 -51 -76 24 -111
68 -111 137 0 60 21 96 73 123 72 37 131 38 211 2z m-739 -59 c17 -18 245
-182 445 -318 94 -65 100 -80 44 -107 l-36 -17 -32 29 c-43 41 -133 107 -246
183 -122 82 -247 176 -253 192 -2 7 -1 23 4 36 11 28 49 29 74 2z m-174 -79
c32 -32 34 -46 18 -101 -10 -32 -19 -41 -57 -56 -43 -16 -47 -16 -77 0 -69 37
-86 117 -34 160 45 38 110 37 150 -3z m1261 -11 c29 -8 39 -18 48 -45 18 -54
10 -77 -35 -102 -49 -28 -75 -29 -108 -3 -57 45 -51 100 17 141 36 22 31 22
78 9z m-1649 -92 c166 -119 262 -190 327 -243 41 -34 110 -85 153 -114 42 -30
77 -59 77 -65 0 -7 -13 -25 -29 -40 l-29 -27 -143 113 c-79 62 -193 149 -253
193 -181 133 -189 139 -200 158 -9 15 -7 22 13 38 30 25 31 25 84 -13z m1866
-24 c31 -39 27 -86 -10 -129 -53 -60 -99 -37 -99 51 0 45 13 70 48 88 36 20
37 20 61 -10z m-1358 -45 c35 -23 91 -63 124 -88 33 -26 88 -66 123 -90 35
-23 61 -48 59 -54 -2 -7 -19 -22 -37 -35 l-34 -22 -30 28 c-17 16 -83 68 -146
115 -144 107 -164 128 -156 161 3 15 12 26 20 26 7 0 42 -19 77 -41z m-693
-147 c92 -64 199 -143 237 -174 39 -30 116 -85 173 -122 56 -36 102 -68 102
-72 0 -3 -11 -19 -24 -35 -13 -15 -26 -34 -29 -41 -5 -10 -9 -9 -19 3 -17 20
-390 301 -533 402 -109 77 -165 121 -165 131 0 6 56 24 77 25 7 1 88 -52 181
-117z m-342 -110 c49 -33 145 -104 214 -158 69 -55 141 -111 160 -124 19 -13
89 -67 155 -119 65 -53 123 -99 129 -102 5 -4 -1 -20 -13 -37 -11 -17 -21 -35
-21 -41 0 -19 -12 -12 -79 47 -36 32 -110 91 -164 131 -55 40 -149 115 -211
165 -62 51 -141 112 -177 136 -107 73 -139 102 -139 126 0 23 11 32 41 33 9 1
57 -25 105 -57z m2234 -111 c139 -31 244 -67 340 -118 249 -131 414 -310 512
-558 31 -77 32 -87 36 -253 3 -136 0 -188 -13 -248 -21 -94 -89 -231 -152
-306 -64 -75 -83 -101 -83 -110 0 -4 -7 -8 -16 -8 -8 0 -13 -4 -10 -8 14 -23
-151 -140 -301 -216 -93 -46 -266 -102 -345 -112 -107 -12 -137 -13 -142 -5
-5 8 -44 5 -76 -6 -34 -11 -251 -11 -321 2 -99 17 -299 80 -374 117 -143 72
-346 241 -421 351 -48 71 -114 215 -135 293 -32 120 -32 339 0 454 109 394
430 652 941 753 14 3 124 4 245 2 180 -2 237 -6 315 -24z m-2421 -56 c55 -60
53 -84 -9 -100 -20 -5 -33 2 -63 28 -43 40 -49 78 -15 101 33 23 41 20 87 -29z
m-222 -111 c16 -22 17 -66 1 -82 -13 -13 -48 -16 -48 -4 0 4 -4 13 -9 21 -7
12 -13 12 -40 0 -36 -16 -36 -19 -16 -59 14 -27 14 -30 -4 -40 -11 -5 -32 -10
-47 -10 -81 0 -66 147 19 186 43 19 126 13 144 -12z m258 -123 c82 -38 129
-116 111 -185 -11 -42 -63 -92 -121 -116 -54 -22 -57 -22 -100 -6 -51 20 -123
74 -141 108 -33 59 -6 134 67 188 34 24 52 30 93 30 28 0 69 -9 91 -19z m3476
-32 c11 -5 24 -22 30 -36 11 -28 3 -67 -12 -58 -8 5 -13 -14 -11 -37 2 -10
-21 -25 -49 -31 -32 -8 -62 12 -78 52 -16 38 7 87 52 106 39 17 43 18 68 4z
m-4752 -108 c46 -87 43 -124 -17 -204 l-49 -64 24 -29 c42 -51 72 -108 78
-149 6 -39 5 -41 -55 -88 l-61 -48 73 -50 c40 -27 164 -129 275 -226 530 -466
719 -631 761 -666 25 -21 131 -116 236 -211 105 -95 207 -186 226 -202 19 -16
71 -60 115 -99 44 -39 157 -136 250 -215 214 -182 518 -454 568 -509 20 -22
37 -46 37 -53 0 -20 -24 -78 -32 -78 -4 0 -47 35 -95 78 -49 43 -104 90 -123
106 -19 15 -82 70 -140 121 -101 90 -335 292 -445 385 -29 25 -133 115 -232
201 -98 86 -243 214 -323 283 -152 133 -508 449 -595 527 -27 25 -156 137
-285 249 -295 255 -384 336 -533 480 -109 105 -225 237 -216 244 17 14 204
119 298 166 64 33 134 70 156 84 59 36 68 33 104 -33z m584 48 c39 -20 67 -52
67 -77 0 -33 -57 -87 -107 -102 -38 -12 -44 -11 -72 9 -97 70 -72 181 41 181
27 0 59 -5 71 -11z m1147 -9 c31 -31 26 -76 -14 -116 -19 -19 -41 -34 -50 -34
-27 0 -74 28 -87 51 -15 29 -3 85 24 104 32 22 102 20 127 -5z m-944 -218
c333 -267 572 -461 675 -548 64 -55 153 -128 198 -164 76 -60 82 -67 76 -95
-7 -36 -22 -47 -54 -39 -35 8 -62 29 -286 219 -110 94 -229 193 -265 220 -36
28 -97 77 -136 110 -39 33 -118 98 -175 145 -141 115 -199 170 -199 188 0 19
29 52 45 52 6 0 61 -39 121 -88z m4247 44 c52 -21 67 -42 67 -93 0 -38 -5 -50
-33 -78 -57 -57 -143 -58 -212 -3 -40 31 -35 85 13 130 58 57 105 70 165 44z
m-3503 -91 c50 -46 66 -54 83 -48 35 13 121 6 155 -11 41 -21 82 -76 82 -110
0 -15 -9 -45 -19 -66 l-19 -39 36 -31 c26 -23 33 -33 24 -42 -8 -8 -20 -3 -48
21 -23 21 -42 30 -53 26 -95 -37 -168 -27 -226 31 -28 28 -35 42 -35 75 0 22
7 54 16 70 8 17 14 32 12 32 -67 33 -105 56 -135 82 l-37 32 29 16 c48 26 69
20 135 -38z m3648 -142 c15 -10 74 -53 131 -97 57 -43 135 -94 172 -112 56
-27 69 -38 69 -57 0 -33 -26 -64 -65 -77 -41 -14 -65 -3 -84 37 -7 15 -17 35
-21 43 -4 8 -67 60 -141 115 -74 55 -135 108 -137 118 -4 21 15 47 35 47 7 0
26 -8 41 -17z m-5922 -8 c-11 -8 -24 -15 -29 -15 -4 0 -6 -4 -3 -9 5 -7 -18
-20 -47 -25 -4 0 -23 -14 -43 -29 -19 -16 -38 -27 -40 -24 -8 7 95 83 136 101
44 19 50 19 26 1z m1239 -8 c51 -29 55 -51 15 -92 -49 -50 -107 -40 -161 29
-18 23 -20 31 -10 53 8 16 17 23 27 19 9 -3 20 -6 26 -6 6 0 3 -10 -8 -22 -10
-13 -3 -8 16 10 19 17 39 32 45 32 5 0 28 -11 50 -23z m170 -73 c19 -8 45 -55
45 -83 0 -11 -12 -33 -26 -48 -15 -15 -20 -19 -13 -9 14 19 13 19 -19 2 -37
-19 -38 -18 -99 38 -18 16 -33 35 -33 41 0 13 89 60 122 64 3 1 14 -2 23 -5z
m4267 -109 c215 -74 215 -74 223 -210 11 -191 7 -180 84 -230 73 -46 91 -75
91 -142 0 -35 -37 -133 -49 -133 -4 0 -16 6 -26 14 -14 10 -18 27 -19 73 -1
73 -10 85 -98 129 -78 39 -74 31 -82 194 -4 63 -9 124 -12 135 -6 22 -194 120
-251 131 -28 5 -33 11 -33 34 0 43 10 62 29 55 9 -4 73 -26 143 -50z m-5352
-90 c19 -19 32 -35 29 -35 -3 0 -20 16 -39 35 -19 19 -32 35 -29 35 3 0 20
-16 39 -35z m1570 -42 c0 -5 18 -32 41 -61 32 -43 38 -57 28 -68 -16 -20 -33
-17 -66 10 -27 23 -34 23 -283 29 -311 7 -360 17 -280 58 28 14 76 19 235 27
278 12 325 13 325 5z m5116 -24 c10 -12 51 -49 89 -81 76 -65 325 -309 325
-318 0 -4 -35 -26 -77 -50 -43 -23 -114 -64 -158 -90 -44 -26 -118 -64 -164
-86 l-84 -38 -39 44 c-51 58 -71 97 -64 124 6 25 44 67 106 118 l45 37 -33 38
c-58 69 -75 110 -70 175 4 53 8 63 48 103 24 25 47 45 51 45 3 0 14 -10 25
-21z m-611 -140 c22 -12 56 -35 75 -50 19 -16 38 -29 42 -29 12 0 10 36 -4 65
-15 33 -5 42 27 21 34 -23 59 -77 51 -110 -3 -14 -10 -25 -14 -23 -5 1 -22
-14 -40 -34 -18 -20 -60 -51 -95 -68 -57 -28 -66 -30 -98 -19 -77 26 -149 89
-149 130 0 37 112 137 155 138 6 0 28 -10 50 -21z m-4600 -18 c22 -10 53 -32
69 -49 27 -29 29 -35 23 -92 -4 -34 -11 -69 -16 -79 -14 -26 -114 -61 -174
-61 -63 0 -121 30 -154 79 -55 82 -6 171 117 214 32 11 97 6 135 -12z m3732
-108 c48 -36 118 -86 154 -109 36 -24 114 -86 173 -139 93 -85 105 -99 95
-116 -6 -11 -17 -23 -24 -25 -18 -7 -118 60 -281 188 -72 57 -161 124 -198
151 l-67 47 27 35 c14 19 28 35 29 35 2 0 43 -30 92 -67z m-4781 -43 c44 -33
80 -65 82 -69 2 -5 -22 -21 -53 -34 -75 -35 -156 -114 -228 -222 -134 -203
-187 -359 -203 -595 -5 -63 -10 -104 -12 -90 -4 23 -5 24 -13 5 -7 -18 -8 -18
-9 5 -1 23 -2 23 -10 5 -8 -18 -9 -18 -10 5 l-2 25 -8 -25 c-4 -14 -8 -19 -9
-12 -1 6 -8 12 -17 12 -17 0 -54 36 -54 51 0 5 -6 6 -13 3 -7 -2 -21 4 -31 15
-27 30 -34 243 -11 335 30 119 103 305 152 390 80 137 151 202 261 237 89 28
101 25 188 -41z m2063 -45 c36 -53 23 -59 -132 -66 -139 -6 -158 -4 -156 15 1
6 -1 19 -6 29 -4 10 -4 21 -1 25 9 8 163 29 226 31 41 1 47 -2 69 -34z m-615
-96 c191 -1 249 -5 263 -15 17 -13 17 -15 -4 -33 -34 -28 -128 -40 -353 -43
l-205 -3 3 35 c5 46 20 73 37 66 8 -3 124 -6 259 -7z m3286 -16 c44 -40 50
-90 16 -130 -35 -41 -79 -49 -122 -22 -65 40 -70 81 -18 139 45 49 80 53 124
13z m2000 -63 c0 -5 -7 -10 -16 -10 -8 0 -12 5 -9 10 3 6 10 10 16 10 5 0 9
-4 9 -10z m-6427 -66 c32 -16 127 -102 127 -115 0 -4 -17 -13 -37 -20 -73 -23
-169 -84 -248 -158 -92 -86 -127 -128 -217 -261 -68 -100 -89 -158 -118 -327
-7 -40 -17 -73 -21 -73 -5 0 -16 15 -26 33 -15 26 -18 56 -17 172 0 122 4 151
28 230 51 171 117 285 228 394 78 78 140 110 266 140 2 1 17 -6 35 -15z m1794
-86 c151 -116 305 -240 393 -318 41 -37 120 -100 175 -140 55 -41 142 -109
193 -152 51 -43 127 -104 170 -135 137 -101 311 -242 387 -314 74 -71 74 -71
60 -100 -23 -43 -36 -35 -240 126 -77 61 -185 145 -240 187 -55 42 -129 102
-165 133 -36 31 -116 95 -177 141 -62 46 -168 130 -235 187 -68 56 -172 142
-233 189 -60 48 -141 112 -178 143 l-68 55 -72 0 c-40 0 -142 -7 -227 -15 -85
-9 -225 -22 -310 -30 -85 -9 -193 -20 -239 -26 -87 -12 -101 -8 -101 31 0 32
18 41 106 50 478 51 658 66 801 69 l92 1 108 -82z m2316 10 c35 -29 84 -68
110 -86 26 -17 50 -39 53 -47 9 -22 -3 -62 -20 -68 -26 -10 -256 166 -256 196
0 10 39 57 47 57 2 0 32 -24 66 -52z m1656 23 c12 -16 21 -35 21 -43 0 -7 -48
-40 -107 -72 -60 -33 -151 -83 -203 -111 -52 -29 -147 -81 -210 -115 -63 -35
-169 -96 -235 -135 -66 -40 -194 -112 -285 -160 -91 -48 -196 -107 -235 -130
-78 -48 -419 -238 -477 -267 -21 -10 -106 -59 -189 -109 -83 -49 -179 -104
-213 -121 -33 -17 -100 -54 -147 -83 -47 -29 -119 -70 -160 -90 -41 -21 -103
-54 -139 -75 -96 -56 -106 -57 -130 -18 -11 18 -20 36 -20 39 0 7 96 64 388
230 100 57 194 113 207 124 l24 20 -201 150 c-433 322 -573 428 -639 484 -66
55 -73 58 -137 64 -37 4 -115 7 -174 7 -95 0 -110 2 -128 20 -20 20 -24 37
-15 62 4 11 44 13 206 11 l201 -3 136 -108 c273 -215 343 -269 484 -374 236
-177 261 -197 305 -233 23 -19 47 -35 55 -35 7 0 43 18 80 39 36 21 111 63
165 92 54 29 117 65 140 81 45 30 349 201 633 356 185 101 349 193 390 221 32
22 206 121 212 121 3 0 85 43 184 95 98 52 182 95 186 95 4 0 16 -13 27 -29z
m-1151 -108 c61 -29 83 -57 89 -116 8 -66 -35 -134 -111 -174 -46 -24 -137
-21 -192 8 -68 35 -88 67 -89 139 0 52 3 62 30 90 89 94 159 107 273 53z m597
-13 c-17 -7 -14 -9 13 -9 19 -1 31 -5 27 -11 -3 -5 -1 -10 4 -10 6 0 11 -4 11
-9 0 -12 -56 3 -76 20 -12 10 -12 14 -2 20 7 5 20 8 28 8 10 0 8 -3 -5 -9z
m-4899 -69 c21 -16 59 -49 83 -74 l43 -45 -38 -24 c-22 -14 -70 -43 -109 -66
-38 -22 -96 -62 -128 -87 -116 -92 -246 -306 -289 -475 -39 -155 -23 -391 37
-534 9 -21 14 -41 11 -44 -3 -3 -6 0 -6 6 0 6 -11 24 -25 40 -13 16 -28 47
-34 68 -5 21 -16 66 -25 99 -9 32 -16 84 -16 115 l0 55 -81 40 c-44 22 -90 45
-101 50 -19 9 -20 16 -14 91 17 225 104 438 237 578 109 115 175 163 277 202
107 41 129 42 178 5z m4614 -7 c0 -43 -83 -72 -110 -39 -18 21 -1 37 53 51 46
12 57 10 57 -12z m-1165 -4 c25 -27 349 -266 568 -417 52 -36 53 -54 6 -79
-29 -14 -30 -14 -177 94 -81 59 -176 128 -212 152 -84 56 -215 155 -263 199
l-39 35 34 17 c43 24 61 23 83 -1z m-2289 2 c6 -4 24 -31 40 -60 l29 -53 -38
-35 c-33 -30 -44 -35 -79 -32 -42 3 -42 3 -53 53 -9 43 -14 50 -36 53 -22 3
-49 34 -49 57 0 11 79 4 83 -7 3 -10 9 -9 23 3 31 26 61 34 80 21z m4748 -123
l6 -106 -42 -19 c-23 -10 -83 -43 -133 -73 -175 -104 -364 -210 -461 -259 -84
-42 -235 -132 -310 -186 -24 -17 -89 -116 -76 -116 18 0 570 284 742 382 102
58 203 115 226 126 l41 21 11 -57 c10 -52 9 -58 -10 -74 -21 -19 -161 -96
-458 -253 -192 -101 -292 -156 -470 -258 -58 -33 -154 -87 -215 -120 -60 -33
-150 -83 -200 -112 -49 -29 -130 -75 -180 -103 -49 -27 -156 -87 -236 -134
-80 -47 -181 -104 -225 -128 -134 -73 -393 -218 -524 -294 -69 -40 -168 -97
-220 -126 -52 -29 -132 -78 -178 -108 -83 -57 -83 -57 -62 -74 12 -10 30 -18
40 -18 30 0 470 237 660 355 41 25 149 84 270 147 79 41 235 129 470 265 52
30 165 94 250 142 85 48 189 108 231 133 41 25 116 67 167 92 50 25 115 61
144 79 53 34 152 87 502 268 104 54 197 105 206 114 9 8 19 15 22 15 5 0 28
-79 28 -98 0 -10 -112 -77 -375 -222 -82 -45 -208 -115 -280 -155 -71 -40
-159 -87 -195 -105 -36 -18 -117 -63 -180 -99 -63 -37 -194 -113 -290 -168
-96 -55 -211 -122 -255 -147 -81 -48 -273 -157 -530 -301 -77 -43 -257 -145
-400 -226 -143 -81 -343 -192 -445 -247 -223 -120 -239 -133 -250 -192 -5 -25
-6 -47 -3 -50 2 -3 30 9 61 26 31 17 131 70 222 118 91 49 212 116 270 149 58
33 164 92 235 130 162 86 338 185 522 294 79 46 187 108 240 137 54 29 145 81
203 115 58 34 170 99 250 145 80 45 208 118 285 163 77 44 174 98 215 120 146
78 286 156 375 208 50 28 114 64 144 79 29 14 82 42 116 61 l62 35 25 -39 c33
-50 36 -46 -142 -142 -74 -40 -152 -83 -172 -96 -21 -12 -40 -23 -42 -23 -7 0
-723 -405 -981 -555 -82 -48 -253 -149 -380 -225 -126 -75 -255 -151 -285
-167 -30 -17 -73 -41 -95 -53 -22 -12 -89 -50 -150 -84 -60 -35 -146 -82 -190
-106 -109 -58 -293 -162 -390 -220 -44 -26 -120 -71 -170 -101 -91 -53 -207
-126 -257 -160 -15 -11 -29 -19 -31 -19 -2 0 -4 141 -5 313 -2 333 -7 416 -27
424 -7 2 -28 -3 -47 -13 -66 -34 -274 -172 -311 -207 -33 -31 -37 -39 -27 -57
6 -12 21 -20 35 -20 16 0 29 -9 39 -27 l15 -28 1 26 c0 18 12 37 35 58 47 41
112 74 120 61 3 -6 4 -151 2 -323 l-5 -312 -120 -62 c-133 -69 -208 -93 -292
-93 -95 0 -206 64 -258 149 -50 82 -63 127 -63 222 0 157 48 280 164 424 108
133 205 198 567 381 264 132 432 224 800 434 371 212 496 284 581 330 84 45
247 139 504 286 136 79 354 201 620 349 72 40 243 134 380 211 230 127 528
285 531 281 1 -1 4 -50 8 -108z m-618 -11 c-22 -11 -46 -27 -54 -34 -7 -8 -18
-11 -24 -8 -11 7 79 63 102 63 8 0 -3 -9 -24 -21z m-2108 -17 c67 -34 88 -74
78 -145 -6 -38 -13 -47 -66 -84 -32 -23 -65 -42 -72 -42 -29 0 -115 49 -141
79 -51 61 -24 142 62 188 54 28 90 29 139 4z m2006 -35 c-3 -8 -17 -16 -32
-19 l-26 -5 25 19 c29 22 40 24 33 5z m-3689 -25 c95 -44 142 -150 101 -229
-17 -32 -158 -115 -196 -115 -31 0 -136 68 -173 113 -68 81 -27 182 95 235 46
20 125 18 173 -4z m3605 -21 c-8 -5 -19 -10 -25 -10 -5 0 -3 5 5 10 8 5 20 10
25 10 6 0 3 -5 -5 -10z m-60 -35 c0 -7 -91 -65 -102 -65 -20 0 -5 19 25 31 17
7 38 19 45 26 13 13 32 18 32 8z m-181 -121 c-30 -18 -106 -59 -169 -91 -63
-32 -117 -61 -120 -64 -3 -3 -18 -9 -35 -13 -23 -5 -15 3 35 36 76 49 251 139
260 133 4 -2 12 4 20 15 7 10 19 16 27 13 7 -3 13 0 13 7 0 6 5 8 11 4 7 -4
-10 -20 -42 -40z m-4889 32 c0 -3 -4 -8 -10 -11 -5 -3 -10 -1 -10 4 0 6 5 11
10 11 6 0 10 -2 10 -4z m3593 -83 c39 -27 55 -58 44 -86 -2 -7 -5 -16 -6 -22
-2 -5 -10 -19 -19 -29 -9 -11 -11 -16 -4 -12 6 4 12 5 12 2 0 -3 -27 -19 -59
-36 -53 -26 -63 -28 -93 -18 -77 27 -128 71 -128 112 0 107 152 161 253 89z
m-1705 -73 c70 -32 103 -60 124 -107 40 -90 -2 -166 -122 -220 -62 -28 -83
-26 -165 12 -101 48 -143 144 -96 222 34 55 129 108 201 112 8 0 34 -8 58 -19z
m-1213 -72 c24 -18 44 -38 45 -45 0 -6 -51 -36 -113 -66 -99 -48 -121 -64
-185 -131 -132 -139 -213 -270 -276 -446 -28 -76 -55 -243 -56 -337 0 -57 -10
-72 -31 -46 -19 22 -25 243 -10 315 16 72 106 310 143 378 57 103 117 177 199
246 98 83 209 163 227 163 7 1 33 -14 57 -31z m253 -207 c31 -22 79 -61 105
-89 l49 -49 -118 -57 c-162 -78 -246 -144 -343 -268 -141 -181 -209 -449 -190
-746 4 -53 5 -99 3 -101 -2 -2 -11 -1 -20 3 -13 5 -15 9 -6 18 13 13 14 99 2
193 -5 43 -8 51 -10 28 -5 -68 -5 -91 3 -86 14 8 7 -88 -8 -103 -12 -13 -19
-10 -55 22 -22 20 -40 43 -40 50 0 8 -4 14 -10 14 -5 0 -9 3 -8 8 1 4 -9 39
-21 77 -51 154 -38 333 41 574 70 215 189 388 320 465 55 32 194 85 226 86 13
0 49 -18 80 -39z m1403 -2 c16 -11 35 -30 44 -42 16 -23 21 -72 6 -63 -5 3
-11 -8 -15 -25 -3 -17 -10 -28 -15 -25 -5 3 -8 -2 -7 -12 0 -9 -6 -17 -14 -17
-8 0 -17 -2 -20 -5 -45 -47 -129 -49 -193 -4 -23 16 -46 41 -51 56 -21 59 22
120 104 149 64 22 119 18 161 -12z m1735 -41 c4 -7 3 -8 -4 -4 -7 4 -12 2 -12
-3 0 -6 -5 -11 -11 -11 -8 0 -8 5 1 15 15 18 17 18 26 3z m-286 -152 c0 -2
-12 -11 -27 -20 l-28 -17 24 20 c23 21 31 25 31 17z m2420 -15 c14 -27 13 -31
-7 -31 -27 0 -221 -92 -288 -137 -33 -21 -105 -63 -160 -92 -55 -29 -136 -74
-180 -101 -44 -26 -111 -65 -150 -87 -38 -22 -92 -53 -120 -70 -75 -46 -374
-214 -420 -236 -22 -11 -62 -34 -90 -52 -57 -37 -146 -90 -328 -196 -71 -41
-170 -100 -220 -132 -51 -32 -121 -74 -157 -94 -36 -19 -105 -59 -155 -88
-123 -72 -386 -219 -525 -295 -63 -34 -128 -72 -145 -85 -38 -27 -251 -153
-330 -194 -33 -17 -125 -71 -205 -120 -407 -251 -462 -275 -626 -274 -72 1
-100 5 -132 22 -48 25 -106 44 -182 62 -30 7 -49 14 -42 16 22 8 13 21 -20 27
-38 7 -72 52 -94 125 -18 60 -18 171 0 196 8 11 11 26 8 35 -3 8 -2 12 1 9 4
-3 15 -38 26 -76 64 -245 269 -389 502 -355 118 17 225 67 534 252 39 23 140
82 225 132 85 49 198 115 250 146 52 30 183 105 290 165 433 244 597 338 883
510 125 76 235 141 245 144 9 4 90 51 180 106 90 54 234 137 320 184 86 47
211 118 277 156 168 98 272 156 330 185 28 13 102 55 165 92 147 87 302 169
317 170 7 0 17 -9 23 -19z m-4923 -94 c32 -24 78 -66 101 -93 41 -48 41 -49
19 -58 -272 -105 -489 -338 -558 -601 -41 -154 -36 -401 11 -542 20 -62 19
-73 -7 -57 -26 16 -52 136 -59 272 -5 82 -11 121 -18 119 -6 -2 -12 -18 -14
-35 -3 -30 -6 -32 -43 -32 -38 0 -39 -1 -39 -35 0 -19 5 -35 10 -35 6 0 10
-13 10 -29 0 -16 7 -34 15 -41 16 -13 22 -120 7 -120 -4 0 -19 13 -33 29 -20
22 -23 33 -15 42 8 9 8 10 -2 5 -7 -4 -15 -1 -18 8 -3 9 -9 14 -13 11 -4 -2
-8 3 -8 11 0 9 4 11 10 5 5 -5 16 -7 26 -4 25 6 16 83 -9 83 -12 0 -22 12 -30
34 -6 19 -19 36 -29 39 -25 6 -31 79 -20 242 15 213 76 393 191 565 64 96 207
195 348 241 82 27 101 24 167 -24z m940 -102 c43 -46 78 -75 91 -75 11 0 56 7
99 15 129 25 159 21 233 -27 71 -47 106 -98 90 -128 -5 -10 -54 -40 -107 -68
-407 -208 -380 -200 -460 -140 -54 39 -152 127 -260 234 l-53 51 17 41 c9 23
22 42 28 42 7 0 19 9 26 20 20 28 169 110 200 110 20 0 44 -19 96 -75z m1293
35 c0 -5 -5 -10 -11 -10 -5 0 -7 5 -4 10 3 6 8 10 11 10 2 0 4 -4 4 -10z
m-138 -62 c-7 -7 -12 -8 -12 -2 0 14 12 26 19 19 2 -3 -1 -11 -7 -17z m-42
-23 c-33 -19 -50 -18 -26 0 11 8 27 15 35 15 10 -1 7 -6 -9 -15z m-3752 -258
l80 -78 7 -232 c10 -304 5 -468 -15 -492 -8 -9 -40 -35 -72 -56 -32 -22 -99
-76 -150 -120 -97 -85 -138 -110 -170 -101 -26 6 -31 35 -27 176 l4 125 40 41
c22 23 77 71 123 108 49 39 85 76 89 90 3 13 3 159 0 324 -4 178 -2 298 3 296
5 -2 45 -38 88 -81z m3295 -18 c-15 -11 -34 -19 -41 -19 -7 0 -11 -4 -8 -9 4
-5 -4 -7 -16 -3 -16 4 -19 2 -13 -8 6 -10 4 -12 -8 -7 -9 3 -19 1 -23 -5 -4
-5 -27 -19 -53 -31 -25 -11 -68 -34 -96 -52 -27 -18 -63 -36 -80 -40 l-30 -7
25 20 c14 10 77 45 140 77 63 32 117 61 120 64 3 3 23 16 44 28 49 26 81 19
39 -8z m-803 -363 c0 -3 -31 -21 -69 -41 -41 -22 -98 -65 -145 -110 -42 -41
-76 -71 -76 -67 0 4 -11 -6 -25 -22 -14 -16 -25 -23 -25 -15 0 35 208 203 300
242 43 19 40 18 40 13z m3722 -212 c56 -29 96 -112 84 -176 -15 -78 -84 -137
-163 -138 -46 0 -115 36 -141 74 -41 61 -23 176 37 230 39 36 123 40 183 10z
m-5048 -126 c3 -18 1 -46 -4 -63 -8 -26 -9 -25 -4 13 5 34 3 42 -10 42 -9 0
-16 8 -16 20 0 33 27 23 34 -12z m961 -168 c-3 -5 -14 -42 -25 -82 -16 -61
-19 -67 -19 -36 -1 34 32 128 44 128 4 0 4 -4 0 -10z m2558 -56 c33 -16 191
-117 296 -189 89 -60 178 -137 185 -160 3 -11 6 -97 6 -191 l0 -171 -45 -29
c-25 -15 -45 -30 -45 -33 0 -4 -10 -17 -21 -31 l-21 -25 6 187 6 188 -58 42
c-31 23 -84 67 -117 98 -33 32 -122 103 -198 160 -76 56 -136 104 -134 106 11
11 93 64 100 64 4 0 22 -7 40 -16z m-2606 -136 c-3 -8 -6 -5 -6 6 -1 11 2 17
5 13 3 -3 4 -12 1 -19z m3684 -71 c43 -28 79 -98 79 -153 0 -71 -59 -137 -139
-155 -86 -19 -180 56 -188 149 -9 99 65 182 162 182 37 0 62 -6 86 -23z
m-6117 -42 c39 -19 82 -83 91 -136 9 -53 -30 -135 -80 -166 -64 -42 -168 -25
-212 35 -64 87 -46 210 39 262 40 24 116 26 162 5z m842 -48 c123 -143 -14
-338 -181 -257 -78 38 -105 129 -65 217 28 63 70 85 149 80 60 -3 67 -6 97
-40z m1481 -44 c-2 -16 -4 -3 -4 27 0 30 2 43 4 28 2 -16 2 -40 0 -55z m193
-444 c0 -6 5 -7 10 -4 6 3 10 4 10 1 0 -17 -21 -12 -41 11 -24 25 -24 26 -1
14 12 -6 22 -16 22 -22z m3226 -64 c73 -76 79 -152 16 -227 -91 -107 -281 -55
-299 83 -6 44 17 117 45 142 35 32 78 47 136 47 57 0 61 -2 102 -45z m-4787
-190 c32 -16 81 -104 81 -144 0 -52 -23 -106 -60 -143 -34 -34 -43 -38 -89
-38 -80 0 -134 37 -166 113 -27 66 7 170 68 207 39 24 125 27 166 5z m1094
-169 c45 -19 68 -48 78 -101 11 -60 -2 -90 -50 -115 -44 -22 -129 -27 -162
-10 -31 17 -52 68 -45 112 8 49 29 81 69 107 38 24 66 26 110 7z m-467 -275
c104 -63 106 -230 4 -298 -44 -30 -86 -29 -150 5 -64 33 -90 75 -90 148 0 123
136 206 236 145z m3789 -272 c67 -18 106 -66 120 -146 13 -79 -53 -173 -132
-189 -60 -12 -146 35 -178 97 -39 75 -1 188 75 227 50 25 60 26 115 11z
m-1208 -30 c61 -23 112 -100 113 -168 0 -44 -33 -110 -66 -134 -40 -30 -136
-25 -180 8 -41 32 -74 92 -74 137 0 57 39 120 90 146 49 25 75 27 117 11z"/>
<path d="M5563 8659 c-37 -11 -68 -58 -58 -90 4 -10 19 -26 35 -34 57 -29 124
-13 150 35 20 38 -34 103 -83 99 -7 0 -27 -5 -44 -10z"/>
<path d="M4695 8526 c-19 -14 -19 -15 -1 -35 11 -12 25 -21 32 -21 18 0 28 38
14 55 -15 19 -21 19 -45 1z"/>
<path d="M5340 7661 c-5 -11 -10 -30 -10 -43 1 -21 2 -22 14 -5 20 26 40 22
166 -34 63 -27 144 -62 180 -76 36 -14 70 -29 75 -34 6 -4 40 -19 75 -32 89
-34 226 -90 280 -115 197 -90 310 -141 338 -152 18 -7 39 -25 47 -39 l14 -26
1 37 c0 47 -15 62 -97 89 -38 12 -90 33 -118 47 -27 14 -142 64 -255 113 -113
48 -306 133 -430 188 -124 56 -235 101 -247 101 -12 0 -27 -9 -33 -19z"/>
<path d="M6846 6775 c-3 -8 -1 -15 4 -15 6 0 10 7 10 15 0 8 -2 15 -4 15 -2 0
-6 -7 -10 -15z"/>
<path d="M6767 6763 c-2 -5 -2 -27 1 -50 5 -48 22 -49 22 -2 0 18 4 28 10 24
15 -9 12 4 -4 21 -16 16 -23 17 -29 7z"/>
<path d="M6825 6724 c-9 -14 -15 -27 -13 -30 2 -2 12 10 22 26 21 37 15 40 -9
4z"/>
<path d="M6680 6701 c0 -24 -23 -28 -222 -37 -76 -3 -138 -10 -138 -15 0 -5
-15 -9 -33 -9 -49 0 -237 -58 -237 -73 0 -5 -4 -5 -10 -2 -5 3 -10 2 -10 -3 0
-5 -20 -12 -46 -15 -25 -2 -50 -11 -57 -20 -7 -8 -37 -20 -67 -27 -30 -7 -64
-19 -75 -26 -11 -8 -29 -14 -40 -14 -11 0 -33 -8 -50 -17 -25 -15 -58 -18
-209 -19 -128 0 -181 -4 -184 -12 -2 -7 -10 -12 -19 -12 -8 0 -21 -7 -29 -15
-12 -11 -13 -19 -4 -36 32 -59 -48 -36 -165 47 l-50 36 40 -36 c54 -49 189
-117 305 -155 118 -38 157 -46 291 -61 258 -28 604 49 796 177 127 86 239 183
225 198 -4 5 -2 5 4 2 7 -4 18 1 25 10 8 9 12 17 11 17 -2 1 2 13 9 28 6 15
15 25 20 23 4 -3 10 -1 14 5 3 5 1 10 -4 10 -6 0 -11 16 -11 35 0 34 -1 35
-40 35 -33 0 -40 -3 -40 -19z m-1405 -401 c3 -6 -1 -7 -9 -4 -18 7 -21 14 -7
14 6 0 13 -4 16 -10z"/>
<path d="M6560 6690 c0 -5 9 -10 20 -10 11 0 20 5 20 10 0 6 -9 10 -20 10 -11
0 -20 -4 -20 -10z"/>
<path d="M5789 6131 c12 -8 51 -4 51 5 0 2 -15 4 -32 4 -23 0 -29 -3 -19 -9z"/>
<path d="M5885 6130 c3 -5 16 -10 28 -9 21 0 21 1 2 9 -28 12 -37 12 -30 0z"/>
<path d="M3588 7654 c-41 -22 -53 -50 -33 -80 21 -33 73 -64 107 -64 33 0 75
36 83 71 5 20 0 33 -25 58 -36 35 -85 41 -132 15z"/>
<path d="M7160 7590 c0 -5 7 -7 15 -4 8 4 15 8 15 10 0 2 -7 4 -15 4 -8 0 -15
-4 -15 -10z"/>
<path d="M2966 7573 c-8 -19 14 -37 28 -23 10 10 1 40 -13 40 -5 0 -12 -8 -15
-17z"/>
<path d="M4122 7580 c0 -14 2 -19 5 -12 2 6 2 18 0 25 -3 6 -5 1 -5 -13z"/>
<path d="M7372 7394 c-27 -18 -28 -36 -4 -57 48 -44 145 16 100 61 -17 17 -69
15 -96 -4z"/>
<path d="M4077 7248 c-28 -10 -44 -45 -34 -72 3 -8 17 -22 31 -31 20 -13 31
-14 65 -5 72 19 89 53 46 95 -26 27 -60 31 -108 13z"/>
<path d="M8023 6668 c-13 -6 -23 -18 -23 -27 0 -43 68 -95 105 -81 11 4 34 20
50 36 25 24 27 29 13 32 -10 2 -18 7 -18 12 0 11 -64 40 -87 39 -10 0 -28 -5
-40 -11z"/>
<path d="M3363 6640 c-74 -45 -46 -110 52 -118 65 -5 95 13 95 60 0 67 -81 99
-147 58z"/>
<path d="M7120 6349 c-9 -15 -8 -24 1 -35 26 -32 69 -1 49 35 -6 12 -17 21
-25 21 -8 0 -19 -9 -25 -21z"/>
<path d="M7237 6065 c-84 -29 -99 -75 -43 -131 38 -38 82 -44 140 -20 73 30
47 137 -39 160 -11 3 -37 -1 -58 -9z"/>
<path d="M7772 5084 c-91 -16 -202 -67 -346 -157 -60 -38 -193 -111 -295 -162
-175 -89 -693 -377 -757 -422 -16 -11 -65 -39 -109 -63 -93 -50 -246 -161
-238 -173 3 -5 8 -5 12 -1 3 5 23 10 44 11 50 2 211 81 472 230 116 66 260
146 320 178 61 32 175 95 255 140 290 165 466 263 530 295 64 32 210 126 210
135 0 7 -12 5 -98 -11z"/>
<path d="M6133 5809 c-18 -12 -33 -29 -33 -40 0 -23 65 -89 88 -89 36 0 60 27
60 70 1 74 -51 100 -115 59z"/>
<path d="M4430 5728 c-71 -37 -73 -52 -17 -104 56 -51 87 -56 138 -21 57 38
49 105 -16 133 -45 19 -53 18 -105 -8z"/>
<path d="M6503 5548 c-13 -6 -23 -19 -23 -28 0 -43 75 -66 116 -36 19 14 19
15 -2 43 -23 31 -56 38 -91 21z"/>
<path d="M4810 5418 c-48 -33 -57 -51 -40 -84 42 -77 158 -85 199 -13 12 22
13 31 1 58 -24 60 -101 79 -160 39z"/>
<path d="M5243 5180 c-12 -5 -27 -19 -34 -31 -10 -20 -8 -26 15 -46 33 -28 56
-29 90 -2 63 50 9 111 -71 79z"/>
<path d="M8723 3860 c-45 -20 -57 -44 -51 -96 2 -21 13 -34 39 -48 41 -22 75
-17 116 18 54 47 27 146 -41 146 -11 0 -40 -9 -63 -20z"/>
<path d="M8252 3290 c-33 -31 -30 -92 4 -119 34 -27 88 -27 114 -1 24 24 27
86 4 118 -21 30 -91 31 -122 2z"/>
<path d="M2160 3251 c-34 -6 -35 -7 -38 -57 -4 -69 19 -99 78 -99 34 0 47 6
66 28 33 39 32 89 -2 116 -27 21 -42 23 -104 12z"/>
<path d="M2966 3238 c-38 -33 -39 -92 -2 -125 30 -26 44 -28 79 -12 45 21 61
90 30 127 -29 33 -76 37 -107 10z"/>
<path d="M7885 2689 c-16 -5 -41 -17 -54 -27 -19 -16 -22 -24 -16 -50 15 -70
113 -98 154 -46 27 34 27 88 1 114 -22 22 -38 23 -85 9z"/>
<path d="M3110 2458 c-35 -19 -50 -53 -39 -92 12 -43 44 -66 90 -66 33 0 41 5
54 30 16 31 20 97 6 118 -12 19 -81 25 -111 10z"/>
<path d="M4262 2304 c-52 -36 -47 -104 7 -104 34 0 81 35 81 60 0 17 -43 60
-59 60 -4 0 -17 -7 -29 -16z"/>
<path d="M3726 2008 c-36 -33 -42 -68 -16 -101 30 -37 99 -39 135 -2 73 72
-42 171 -119 103z"/>
<path d="M3911 1964 c0 -11 3 -14 6 -6 3 7 2 16 -1 19 -3 4 -6 -2 -5 -13z"/>
<path d="M7546 1734 c-28 -27 -38 -54 -31 -84 8 -35 58 -80 89 -80 34 0 71 34
91 82 l17 43 -31 27 c-37 33 -108 39 -135 12z"/>
<path d="M6324 1685 c-15 -15 -23 -32 -20 -41 3 -9 6 -22 6 -30 0 -51 113 -76
144 -32 18 26 21 80 6 109 -17 31 -103 27 -136 -6z"/>
<path d="M7770 8841 c-73 -23 -113 -58 -151 -131 -24 -44 -24 -51 -24 -315 0
-319 7 -358 79 -430 65 -64 93 -67 641 -63 460 3 460 3 507 27 53 26 102 77
127 130 13 30 16 78 16 306 0 298 -6 337 -57 399 -16 20 -49 47 -71 59 -42 22
-46 22 -542 24 -275 1 -511 -2 -525 -6z m1004 -137 c73 -38 78 -60 80 -337 1
-227 0 -244 -19 -277 -42 -70 -27 -68 -552 -72 -466 -3 -472 -3 -500 18 -65
49 -82 127 -83 382 0 195 9 241 58 283 l35 31 471 -4 c453 -3 473 -4 510 -24z"/>
<path d="M8130 8383 c0 -104 4 -194 9 -202 7 -11 34 3 125 63 64 42 139 88
166 104 27 15 50 33 50 40 0 15 -146 111 -231 152 -35 16 -76 30 -91 30 l-28
0 0 -187z m105 77 c10 -11 40 -34 66 -51 27 -17 49 -34 49 -38 0 -4 -13 -15
-30 -24 -16 -10 -49 -33 -72 -50 l-43 -33 -2 108 c-1 59 2 108 6 108 4 0 16
-9 26 -20z"/>
<path d="M8730 7592 c-30 -9 -60 -46 -60 -73 0 -28 48 -79 75 -79 20 0 75 68
75 94 0 13 -6 28 -13 34 -20 17 -61 30 -77 24z"/>
<path d="M1994 4561 c-33 -15 -45 -28 -63 -71 -20 -46 -22 -59 -12 -91 17 -55
74 -99 129 -99 24 0 55 6 70 14 45 24 92 80 98 118 5 30 1 41 -27 73 -35 39
-98 75 -134 75 -11 0 -38 -9 -61 -19z"/>
<path d="M6447 3004 c7 -3 9 -12 7 -19 -4 -8 14 -33 40 -59 48 -47 193 -146
212 -146 18 0 24 -37 24 -161 l0 -116 -40 -18 c-49 -22 -96 -73 -122 -132 -27
-61 -28 -175 -3 -228 44 -91 156 -165 250 -165 72 0 116 15 187 63 82 56 108
103 108 201 0 127 -60 211 -192 269 l-57 26 -3 157 -3 158 -30 6 c-16 4 -69
35 -116 70 -71 52 -100 67 -160 81 -68 17 -131 24 -102 13z m460 -624 c68 -41
97 -167 51 -225 -25 -32 -91 -64 -132 -65 -37 0 -108 41 -132 77 -26 40 -25
124 2 160 53 71 144 94 211 53z"/>
<path d="M6775 2295 c-33 -32 -32 -65 3 -98 54 -52 135 -19 135 54 0 65 -89
94 -138 44z"/>
<path d="M5736 2193 c42 -74 44 -75 83 -68 72 12 73 14 66 53 -9 51 -28 62
-107 62 l-69 0 27 -47z"/>
<path d="M5726 2064 c-15 -39 -6 -73 27 -97 60 -44 80 -48 126 -25 68 33 79
85 23 106 -87 34 -166 41 -176 16z"/>
</g>
</svg>
