<?xml version="1.0" standalone="no"?>
<!DOCTYPE svg PUBLIC "-//W3C//DTD SVG 20010904//EN"
 "http://www.w3.org/TR/2001/REC-SVG-20010904/DTD/svg10.dtd">
<svg version="1.0" xmlns="http://www.w3.org/2000/svg"
 width="1024.000000pt" height="1024.000000pt" viewBox="0 0 1024.000000 1024.000000"
 preserveAspectRatio="xMidYMid meet">

<g transform="translate(0.000000,1024.000000) scale(0.100000,-0.100000)"
fill="#000000" stroke="none">
<path d="M0 5120 l0 -5120 5120 0 5120 0 0 5120 0 5120 -5120 0 -5120 0 0
-5120z m9210 2663 c94 -30 157 -70 216 -136 56 -63 81 -111 128 -247 42 -125
45 -172 33 -540 -9 -272 -18 -322 -73 -407 -19 -29 -34 -59 -34 -65 0 -7 15
-38 34 -68 47 -75 60 -134 53 -229 -6 -82 -44 -216 -82 -291 -84 -166 -245
-287 -491 -369 -138 -46 -279 -39 -385 21 l-38 21 -38 -32 c-176 -147 -323
-216 -501 -237 -103 -11 -224 28 -310 101 -30 27 -42 32 -42 20 0 -32 -49
-112 -95 -154 -25 -23 -74 -56 -108 -72 -93 -43 -279 -90 -372 -93 -66 -3 -94
-10 -160 -39 -254 -112 -491 -129 -592 -43 l-27 24 -43 -48 c-23 -26 -72 -66
-108 -90 -36 -23 -65 -43 -65 -45 0 -1 6 -15 14 -31 8 -16 19 -76 25 -134 11
-111 36 -893 36 -1145 0 -141 -2 -155 -29 -230 -25 -68 -39 -90 -95 -146 -91
-91 -172 -130 -358 -173 -82 -19 -233 -60 -338 -92 -166 -51 -201 -58 -275
-58 -97 -1 -157 22 -217 82 -19 19 -35 32 -37 30 -96 -154 -203 -226 -403
-274 -139 -33 -235 -40 -304 -24 -42 10 -64 24 -105 64 -69 69 -98 146 -90
234 5 62 14 89 116 367 72 196 114 330 149 475 46 189 86 331 129 470 22 69
43 140 47 158 l7 32 -80 0 c-66 0 -92 -5 -148 -29 -115 -48 -246 -90 -306 -97
-70 -8 -142 8 -203 47 l-47 30 -56 -59 c-92 -94 -192 -138 -412 -181 -58 -11
-163 -38 -235 -60 -168 -50 -261 -65 -353 -57 -71 6 -76 5 -137 -29 -193 -109
-411 -133 -521 -59 -41 28 -44 29 -44 10 0 -23 -75 -100 -131 -133 -84 -50
-253 -93 -363 -93 -74 0 -100 4 -141 24 -69 32 -123 98 -146 179 -5 17 -9 580
-9 1251 -1 1207 -1 1222 19 1276 27 72 71 124 145 172 78 50 184 82 379 113
87 14 189 37 225 51 127 48 327 94 411 94 175 0 277 -70 302 -206 6 -32 12
-60 13 -62 2 -1 32 7 67 17 35 11 130 34 210 50 80 17 231 51 335 75 104 24
230 52 279 61 50 9 151 31 225 50 74 18 162 39 195 45 106 20 123 28 142 68
27 56 91 115 169 154 62 31 125 47 288 76 33 6 46 16 77 61 150 217 433 354
694 338 155 -10 311 -79 395 -174 40 -46 120 -192 120 -220 0 -10 6 -14 18
-10 9 2 56 16 105 31 116 34 197 41 287 26 65 -11 74 -11 82 4 24 43 126 73
483 140 214 40 354 70 765 163 86 20 146 27 236 28 91 1 128 5 145 17 74 48
213 90 393 118 83 13 194 -1 244 -30 l33 -20 61 51 c66 55 109 77 217 109 145
45 273 46 401 3z m-2140 -3423 c6 -12 9 -65 8 -127 l-3 -108 -50 0 -50 0 0
110 c0 61 3 118 7 128 11 25 74 23 88 -3z m-264 -182 l61 -117 -45 -7 c-31 -5
-47 -3 -52 6 -11 18 -66 3 -103 -29 -40 -35 -70 -51 -96 -51 -25 0 -27 20 -4
63 9 18 33 77 54 132 26 71 44 104 61 113 47 25 60 13 124 -110z m-2876 -507
c19 -36 11 -55 -38 -86 -43 -27 -47 -34 -47 -68 0 -27 -6 -43 -19 -53 -24 -17
-75 -18 -80 -1 -2 6 -8 30 -12 52 -8 37 -11 40 -44 40 -30 0 -35 4 -38 26 -4
36 21 54 118 83 106 31 146 33 160 7z m-372 -60 c2 -14 -8 -38 -27 -61 -38
-48 -39 -59 -1 -95 36 -35 38 -52 6 -66 -19 -9 -29 -8 -47 5 -29 20 -68 21
-75 2 -7 -17 -70 -61 -102 -71 -22 -6 -23 -5 -17 17 4 12 23 47 41 76 19 29
34 57 34 62 0 5 -11 26 -25 46 -14 21 -24 45 -23 53 4 22 51 25 88 6 31 -16
33 -16 59 8 54 51 84 56 89 18z m-414 -173 c12 -106 9 -127 -21 -139 -16 -6
-40 -8 -55 -5 -15 3 -30 1 -34 -5 -6 -10 -25 -19 -71 -33 -23 -7 -23 -6 -23
91 0 134 6 141 126 142 l71 1 7 -52z"/>
<path d="M8960 7724 c-146 -23 -267 -80 -343 -165 l-56 -61 -30 21 c-17 12
-51 31 -77 43 -134 59 -484 -15 -585 -123 l-27 -29 -48 21 c-40 18 -59 21
-118 15 -39 -3 -96 -13 -126 -21 -78 -21 -256 -61 -385 -85 -60 -12 -186 -38
-280 -60 -93 -21 -213 -46 -265 -55 -52 -8 -143 -27 -202 -41 -91 -22 -111
-30 -133 -56 -14 -16 -25 -36 -25 -45 0 -11 -5 -13 -17 -8 -58 24 -141 45
-180 45 -67 0 -209 -38 -287 -77 -37 -19 -69 -33 -70 -31 -1 2 -7 26 -14 53
-17 68 -65 168 -103 216 -44 56 -149 128 -222 152 -45 14 -90 20 -162 21 -231
1 -434 -108 -590 -319 l-52 -70 -80 3 c-221 10 -452 -132 -453 -279 0 -13 -14
-18 -62 -23 -90 -11 -238 -42 -286 -62 -23 -9 -53 -30 -67 -46 -24 -28 -28
-29 -55 -18 -49 20 -130 13 -312 -29 -214 -50 -234 -56 -267 -78 -19 -13 -48
-18 -111 -20 -132 -2 -257 -42 -346 -109 l-31 -24 -7 96 c-9 129 -34 177 -110
216 -81 41 -181 34 -375 -27 -95 -30 -140 -68 -166 -140 -10 -27 -20 -52 -22
-54 -1 -2 -23 14 -47 37 -57 52 -105 66 -188 52 -140 -22 -251 -63 -316 -117
-86 -70 -79 37 -80 -1333 -1 -1208 -1 -1215 19 -1258 32 -64 91 -95 183 -95
73 0 216 32 270 60 63 33 145 114 162 162 10 25 19 48 20 50 2 2 22 -13 45
-32 87 -75 198 -86 373 -37 126 36 177 59 199 94 16 24 18 25 52 11 80 -34
304 -3 442 60 45 21 96 36 135 39 109 11 141 17 235 47 151 49 273 143 273
213 0 23 7 20 41 -13 83 -83 193 -95 374 -42 134 40 182 64 203 100 l16 28 45
-21 c49 -22 183 -29 229 -13 20 8 22 5 22 -23 0 -17 -4 -39 -10 -49 -12 -24
-96 -315 -121 -421 -51 -218 -133 -487 -221 -730 -98 -271 -101 -279 -101
-360 -1 -87 13 -120 69 -170 48 -42 92 -60 146 -60 75 0 297 61 358 98 31 19
216 205 222 223 3 10 15 6 42 -16 20 -17 55 -44 76 -62 59 -47 116 -51 265
-18 66 15 123 29 126 31 4 2 112 31 240 64 129 34 262 74 296 89 74 35 133 93
170 169 l28 57 -3 560 c-4 584 -11 746 -36 836 -8 30 -16 69 -18 88 -3 33 0
37 55 67 86 49 206 152 229 197 l20 40 27 -31 c39 -42 77 -59 157 -72 84 -14
148 -7 288 31 108 30 175 58 209 87 15 13 23 14 51 4 36 -13 74 -8 218 28 175
45 264 105 310 209 63 144 72 148 154 71 74 -70 128 -93 237 -98 105 -5 196
14 304 63 100 46 218 130 245 174 12 20 23 38 24 40 2 2 19 -10 39 -27 108
-95 377 -77 572 39 90 54 195 163 235 244 66 131 81 191 76 307 -3 102 -4 105
-47 176 l-43 72 35 73 c51 102 64 174 73 412 12 292 10 376 -15 473 -59 235
-233 385 -443 381 -40 -1 -84 -3 -98 -5z m217 -223 c23 -11 56 -38 74 -60 56
-65 71 -118 76 -276 6 -161 -11 -553 -24 -566 -11 -11 -226 -73 -308 -89 -33
-6 -77 -16 -97 -22 l-38 -11 0 -214 c0 -134 4 -222 11 -235 14 -26 67 -48 102
-41 15 3 41 18 57 33 30 28 30 29 30 139 l0 111 40 0 c22 0 69 11 106 25 111
42 114 39 114 -88 -1 -187 -38 -307 -120 -380 -84 -75 -217 -127 -326 -127
-81 0 -170 50 -211 119 -18 30 -37 77 -43 107 -14 65 -12 1127 1 1224 24 168
166 329 326 370 61 15 184 5 230 -19z m-857 -142 c63 -14 114 -52 159 -119 47
-71 63 -144 59 -270 l-3 -95 -65 -16 c-36 -9 -93 -23 -127 -31 l-63 -15 0 108
c0 104 -1 108 -26 128 -59 46 -157 11 -182 -64 -9 -27 -12 -69 -9 -128 6 -113
20 -134 163 -243 124 -93 260 -230 287 -286 23 -49 25 -384 2 -472 -28 -107
-120 -228 -212 -278 -196 -107 -401 -73 -470 78 -20 44 -25 74 -29 176 -3 68
-6 137 -9 154 -3 31 -3 31 54 37 47 5 150 32 209 54 8 4 13 2 10 -3 -3 -5 -3
-58 1 -117 6 -92 11 -111 29 -129 41 -42 134 -17 173 45 19 29 20 43 15 146
-5 97 -9 119 -31 156 -31 53 -110 126 -238 216 -99 72 -160 138 -192 214 -15
33 -17 68 -16 197 3 228 34 328 134 430 107 108 250 156 377 127z m-546 -176
c-8 -49 -14 -116 -14 -149 l0 -62 -67 -16 c-101 -25 -190 -71 -210 -109 -16
-29 -18 -87 -21 -592 -2 -308 -6 -632 -10 -719 l-7 -160 -120 -32 c-66 -18
-122 -33 -124 -34 -2 0 0 37 3 83 4 45 7 456 8 914 l2 832 55 12 c31 6 84 17
119 24 l62 13 0 -66 0 -66 28 45 c16 24 50 63 76 86 40 35 60 45 124 58 43 9
82 18 87 20 6 2 13 4 16 4 3 1 0 -38 -7 -86z m-2487 52 c63 -19 131 -77 162
-141 20 -39 26 -71 32 -178 11 -187 11 -314 -1 -321 -10 -6 -235 -55 -253 -55
-6 0 -6 72 -2 168 6 146 5 173 -9 200 -22 43 -50 55 -108 50 -57 -6 -93 -29
-119 -78 -18 -33 -19 -76 -19 -882 l0 -847 31 -36 c25 -28 38 -35 68 -35 48 0
100 29 129 71 22 33 23 40 20 201 -3 184 -6 177 62 178 14 0 65 12 113 26 49
14 90 24 91 22 1 -1 -1 -95 -6 -208 -10 -246 -26 -310 -98 -404 -89 -116 -195
-175 -334 -184 -154 -10 -240 34 -301 154 l-30 59 -3 909 c-1 591 1 929 8 965
15 82 62 174 122 237 111 117 300 172 445 129z m1808 -942 c-3 -847 -5 -883
-45 -949 -23 -36 -97 -78 -231 -130 -188 -73 -324 -45 -392 81 -22 40 -22 44
-27 860 -3 451 -5 821 -4 822 1 3 143 29 212 39 l42 7 0 -735 0 -735 23 -34
c21 -30 28 -34 65 -33 32 1 50 8 73 30 l30 28 -3 758 -3 758 55 11 c30 6 78
17 105 24 28 7 62 14 77 14 l27 1 -4 -817z m-2643 492 c-5 -154 -11 -146 88
-120 30 8 60 15 66 15 8 0 12 -44 13 -134 l2 -134 -43 -6 c-24 -4 -64 -12 -90
-17 l-46 -11 5 -641 c3 -353 9 -659 14 -679 13 -49 38 -62 106 -54 l53 6 0
-53 c0 -30 3 -94 6 -144 l7 -90 -59 -16 c-92 -26 -148 -31 -201 -18 -72 18
-121 55 -146 109 -20 46 -21 60 -24 786 -1 406 -4 740 -6 743 -2 2 -33 -3 -68
-11 -35 -9 -65 -13 -67 -11 -8 8 18 217 30 243 8 17 29 32 57 43 53 19 64 42
59 117 l-5 52 71 39 c39 22 94 58 121 80 28 21 52 40 55 40 3 1 4 -60 2 -134z
m1659 90 c81 -29 142 -95 170 -187 7 -22 10 -247 9 -656 -2 -683 -1 -680 -62
-794 -38 -72 -126 -164 -190 -202 -141 -82 -313 -71 -404 26 -44 46 -62 85
-73 159 -14 88 -14 1184 -1 1280 26 181 138 311 320 370 68 22 174 24 231 4z
m-2102 -385 c-16 -45 -47 -154 -69 -243 -48 -191 -66 -255 -165 -579 l-26 -86
36 -132 c20 -72 70 -221 111 -330 41 -109 74 -203 74 -209 0 -18 80 -213 106
-257 14 -23 21 -44 17 -47 -21 -13 -266 -58 -272 -51 -8 9 -141 385 -182 512
-13 39 -26 72 -30 72 -16 0 -29 -33 -59 -150 -17 -69 -47 -186 -67 -260 -19
-74 -42 -164 -50 -200 -9 -36 -17 -70 -18 -76 -3 -10 -263 -79 -270 -72 -5 6
132 454 182 593 23 65 57 182 105 365 11 41 29 85 40 97 20 21 20 21 -15 100
-19 43 -44 110 -57 148 -30 92 -132 374 -163 450 -13 33 -41 99 -61 147 -20
48 -36 91 -36 96 0 5 28 13 63 16 34 4 90 14 125 22 35 8 69 14 76 14 7 0 21
-26 31 -57 98 -327 145 -465 162 -470 12 -4 69 167 78 236 4 30 18 85 31 122
13 37 32 107 43 154 11 48 24 92 29 97 6 6 45 16 88 24 44 7 97 20 119 27 22
8 43 13 46 11 4 -2 -7 -40 -22 -84z m-1717 -1138 l3 -1173 -35 -8 c-19 -5 -67
-16 -107 -25 -40 -9 -78 -19 -85 -21 -10 -4 -21 27 -42 112 -15 65 -43 165
-61 223 -19 58 -66 218 -105 355 -39 138 -85 291 -101 340 -16 50 -40 139 -52
199 -22 108 -39 139 -51 94 -7 -28 -6 -605 3 -1068 3 -190 4 -348 1 -352 -7
-10 -233 -59 -239 -52 -3 3 -6 534 -6 1180 0 1167 0 1175 20 1179 134 30 178
36 186 23 5 -7 29 -78 54 -158 26 -80 71 -221 100 -315 30 -93 79 -258 110
-365 31 -107 64 -222 75 -255 10 -33 26 -97 35 -143 18 -90 41 -156 53 -148 4
2 3 111 -1 243 -8 245 -5 1258 4 1268 10 9 224 51 231 45 4 -3 9 -533 10
-1178z m698 927 c55 -30 104 -94 127 -162 14 -44 17 -108 20 -427 2 -206 0
-380 -4 -386 -8 -11 -143 -50 -360 -102 l-113 -27 0 -245 c0 -135 5 -263 10
-285 18 -78 86 -98 158 -45 23 16 46 38 51 49 6 11 11 67 11 125 l0 106 35 0
c19 0 75 13 125 29 49 16 90 26 91 22 0 -3 0 -51 -1 -106 -2 -199 -43 -321
-138 -418 -67 -69 -145 -111 -244 -134 -60 -13 -81 -14 -139 -4 -94 17 -138
51 -181 138 l-33 68 0 746 0 745 43 86 c49 100 109 160 205 208 78 38 134 50
223 46 52 -2 82 -9 114 -27z m2891 -1771 c5 -478 6 -922 2 -1074 l-6 -192
-111 -26 c-61 -14 -114 -26 -118 -26 -13 0 -7 1309 5 1317 13 8 184 50 210 52
14 1 17 -8 18 -51z m-881 -168 c0 -5 31 -81 69 -167 141 -325 282 -662 322
-773 23 -63 55 -141 71 -172 34 -69 35 -86 6 -93 -13 -3 -70 -16 -128 -30 -58
-14 -110 -25 -117 -25 -6 0 -23 35 -37 78 -14 43 -34 99 -45 124 l-20 47 -67
-19 c-38 -11 -91 -24 -118 -30 -28 -5 -98 -22 -156 -38 l-105 -28 -36 -129
c-41 -150 -51 -173 -82 -179 -12 -3 -66 -14 -120 -26 -54 -12 -101 -19 -104
-16 -7 6 8 50 180 561 108 321 158 473 243 747 23 73 43 119 53 123 18 8 172
53 184 54 4 1 7 -3 7 -9z"/>
<path d="M8950 7218 c-25 -13 -55 -38 -67 -57 -22 -32 -23 -43 -23 -234 0
-167 2 -198 14 -194 8 3 55 13 105 22 l91 17 0 209 c0 210 0 210 -25 234 -30
31 -39 31 -95 3z"/>
<path d="M5860 6562 c-34 -33 -39 -45 -45 -102 -3 -36 -5 -305 -3 -598 l3
-534 28 -24 c15 -13 39 -27 53 -30 35 -9 98 37 124 90 19 41 20 59 20 615 l0
572 -25 24 c-19 19 -35 25 -71 25 -40 0 -51 -5 -84 -38z"/>
<path d="M2760 6007 c-20 -7 -48 -30 -67 -55 l-33 -44 0 -240 0 -240 35 6 c19
4 69 17 110 29 l75 22 4 230 c2 127 -1 242 -6 257 -6 16 -21 31 -40 37 -37 13
-34 13 -78 -2z"/>
<path d="M4903 3868 c-14 -18 -101 -294 -109 -344 l-6 -41 113 24 c63 14 120
27 128 29 17 5 11 31 -39 159 -21 55 -44 119 -51 143 -13 44 -20 50 -36 30z"/>
<path d="M6686 4173 c-12 -12 -6 -33 9 -33 8 0 15 6 15 14 0 17 -14 28 -24 19z"/>
</g>
</svg>
